<?xml version="1.0" encoding="UTF-8"?>
<svg id="Layer_1" xmlns="http://www.w3.org/2000/svg" version="1.1" viewBox="0 0 100 100">
  <!-- Generator: Adobe Illustrator 29.5.1, SVG Export Plug-In . SVG Version: 2.1.0 Build 141)  -->
  <defs>
    <style>
      .st0 {
        fill: #3f2243;
      }
    </style>
  </defs>
  <g id="apJEk7.tif">
    <path class="st0" d="M52.9,4v2.7h2.9v2.4h2.7v4.6h2.9v5.1c0,.3,2.2,0,2.6.2v9h-2.6v4.8h2.7v-2.6h2.6v-4.4s.2-.2.2-.2h2.2v-6.6h-5v-2.8h3.1v-2.5h6c0,.1.1.2.1.3v13.9s-.2.2-.2.2h-2.4v4.9h-2.4v2.5h-3.2v2.2h2.2v3.4h2.6v4.7h-13.3l-2.2-2-1.3-1v6.2h2.2s.2.2.2.2v3.9s-.2.2-.2.2h-2.2v35.2h2.2v4.1h-2.4c0,0,.1.1.1.2v3.4s-.2.2-.2.2h-5.3v-3.7h-2.1v-4.1h2.1v-35.2h-2.1v-4.2h2.1v-6.2c-.2,0-.2,0-.4.2-1.1.8-2.1,2-3.3,2.8h-13.3v-4.7h2.9v-3.4h2.2v-2.2h-3.6v-2.5h-2.2v-4.9h-2.4v-14.3h5.5v2.5h3.4s.2.2.2.2v2.7h-4.7v6.6h2.2v4.6h2.5v2.6h2.5v-4.8h-2.2s-.2-.2-.2-.2v-8.8h2.4v-5.3h3v-4.6h2.7c-.1-.8-.2-1.6,0-2.4h2.7v-2.7h5.2ZM52.8,11h-4.7v5.5h-3c0,.1.1.2.1.3v4s-.2.2-.2.2h-2.6v6.8h2.7v4.9h3c0,.1.1.2.1.3v2.2s-.2,0-.1.2h4.6v-2.4s.2-.2.2-.2h2.9v-4.9h2.5v-6.8h-2.4s-.2-.2-.2-.2v-4.3h-3v-5.5ZM45.1,37.4h-5.7v2.5s-.2.2-.2.2h-2.4v2.3h5.5v-2.4c1,0,1.9,0,2.9,0v-2.6ZM61.7,37.4h-6.2v2.5h2.9s.2.2.2.2v2.3h5.6v-2.3h-2.5v-2.7Z"/>
  </g>
</svg>