<?xml version="1.0" encoding="UTF-8"?>
<svg id="Layer_1" xmlns="http://www.w3.org/2000/svg" version="1.1" viewBox="0 0 100 100">
  <!-- Generator: Adobe Illustrator 29.5.1, SVG Export Plug-In . SVG Version: 2.1.0 Build 141)  -->
  <defs>
    <style>
      .st0 {
        fill: #341639;
      }
    </style>
  </defs>
  <g id="_x35_No9qx.tif">
    <path class="st0" d="M79.8,7.4v4.6h4.5v4.9h4.1v4.8h4.1c.2,0,.2.9.2,1.1,0,1.5,0,3.2-.1,4.7h4v11.7h-3.7v5.2h-3.9v4.3h-3.6v4.6h-3.9v4.5h-4v4.6h-3.9v4.8h-3.6v4.8c-.5.2-3.5-.3-3.5.2v4.9h-4v4.9h-4.1v4.6s-.2.2-.2.2h-3.8v5.5h-8.9v-5.3s-.2-.2-.2-.2h-3.5v-4.8h-4.1v-4.9h-3.7v-5.1h-3.7v-4.8h-3.6v-4.8h-3.9v-4.6h-4v-4.5h-3.6v-4.6h-3.8s-.2-.2-.2-.2v-4.1h-3.7s-.2-.2-.2-.2v-5h-3.9v-11.7h4v-5.8h4.3v-4.8h4.4v-4.9h4.1v-4.4s.2-.2.2-.2h59.3ZM41.5,13.5c-3.8,0-7.6,0-11.4,0s-1,0-1.5,0-3.1-.1-3.2.2c0,.1,0,.2,0,.2v3.4s-.2.2-.2.2h-3.8v4.3h-4.4v4.8h-4.8v3.9h18.6v-1.9h2.9v-6.7s.2-.2.2-.2h3.5v-6h3.9v-2.2ZM52.7,13.5h-4.7v5s-.2.2-.2.2h-4.1v5.1h-3.7c0,.1.1.2.1.2v4.4h-2.8v2.1h25.6v-2.1h-2.5v-4.6h-4v-5.1h-3.5s-.2-.2-.2-.2v-5ZM74.8,13.5h-15.1c-.6.1-.2,1.7-.3,2.2h3.3s.2.2.2.2v5.8h3.7v6.9h2.7v1.9h18v-3.9h-4.1v-4.8h-4v-4.1s-.2-.2-.2-.2h-4.1v-4ZM32.2,44.5v-8l-19.8-.2v3h3.7v4.3h4v4.6h3.6v4.6h3.6v4.6h3.8s.2.2.2.2v4.1h3.9v5.1h3.3v5.1h3.1v4.3h.9v-9h-2.8v-7.9h-2.4v-8.4h-2.4v-6.6h-2.7ZM63,36.3h-25.6v4.6h2.7v7.3h2.4v9.2s.2.2.2.2h2.2v7.8h2.7v10.9c.3.1,1.3-.2,1.3,0v6.5h2.7v-6.6c0,0,1.3,0,1.3,0v-10.9h2.5v-7.6s.2-.2.2-.2h2.3v-9.2s.2-.2.2-.2h2.5v-7.3h2.4v-4.6ZM87.9,36.3h-20v8.2h-2.3v6.6h-2.5v8.4h-2.4v7.7s-.2.2-.2.2h-2.9v9h.8v-4.1s.2-.2.2-.2h3v-5.1h3.5v-5.1h4v-4.1s.2-.2.2-.2h3.7v-4.6h3.6v-4.3s.3-.4.3-.4h3.5v-4.6h3.7v-4.3h3.7v-3Z"/>
  </g>
</svg>