<?xml version="1.0" encoding="UTF-8"?>
<svg id="Layer_1" xmlns="http://www.w3.org/2000/svg" version="1.1" viewBox="0 0 100 100">
  <!-- Generator: Adobe Illustrator 29.5.1, SVG Export Plug-In . SVG Version: 2.1.0 Build 141)  -->
  <defs>
    <style>
      .st0 {
        fill: #3f2243;
      }
    </style>
  </defs>
  <g id="Zqyf0k.tif">
    <g>
      <path class="st0" d="M43.1,4.8v3.4h3.7v3.3h3.6v9.1h3.6v9.7c0,.2-.9,1.1-1.1,1.1h-2.5v4.9c0,0-7.1,7-7.1,7-.3.2.2.7.4.8h10s4.9,5,4.9,5c.6,0,3.5.2,3.8,0s.1-.7.3-.9c.6-1.4,2.3-2.4,3.6-3l-4.4-10.7h22.2l-4.1,9.8c1.3.5,2.4,1.1,3.1,2.4s.8,4,.6,5.8-.6,1.7-1.1,2.3c3.5,3.7,7.1,7.7,8.6,12.7,4.9,16.5-12.2,27.7-26.4,20.2-7.7-4-10.3-12.7-7.6-20.7h-5.6s0,28.2,0,28.2H16.8v-12.6h-8.7v-29.3l8.7-8.7c1.7-.3,3.9.2,5.5,0s1-.7,1.1-1-1.1-1.3-1.3-1.5c-1.8-2-3.8-3.8-5.6-5.8v-4.7h-2.4c-.2,0-1.1-.9-1.1-1.1v-9.3h3.5s.2-.2.2-.2v-9.1h3.8v-3.4h3.3v-3.4h19.3ZM42.7,8.5h-18.6v3.4h-3.4v11.3s-.2.2-.2.2h-3.8v6.9h3.8v5l7.5,7.7h10.5c2.7-2.3,5-5.1,7.6-7.6.3-.4,0-.9,0-1.4,0-1-.1-2.4,0-3.3s0-.4.2-.4h3.4s.2-.2.2-.2v-6.9h-3.8v-11.1s.1,0,.1-.1c0-.3-.4,0-.5,0-.9,0-1.9-.3-2.9,0,0,0-.2-.1-.2-.1v-3.3ZM70.2,38h-3.1l2.7,6.4h6c0-.1,2.7-6.4,2.7-6.4h-3.8v2.9h-3.3c0,0-1.1-2.9-1.1-2.9ZM41.1,46.6h-15c-.1.3.3,1.5,0,1.5h-7.7c-2,2.2-4.2,4.1-6.2,6.2v24.5h4.7v-19.6h3.9v6.3c.3,0,.6-.3.8-.5,1.2-.8,2.4-1.7,3.6-2.6,5.9-4.6,11.3-9.9,16-15.8ZM47.5,47.9h-2.8c-6.4,8.1-14.1,14.8-22.5,20.8s-1,.8-1.5.9v21.8h26.8v-43.6ZM62.3,52.9h-5.4l-4.6-4.8c-.2-.2-.6,0-.9-.1v15.6h6.9c1.2-1.8,2.5-3.7,4-5.3v-5.3ZM66.1,50.4c-.2,1.4.2,3.4,0,4.8,0,0,.1.2.2.2h3.1c.2,0,1.2-.4,1.4-.5.5-.3,1.3-1.1,1.5-1.6s.2-3.2.1-3.9-.3-.9-.6-1c-.6-.2-3.1-.1-3.7.1s-1.8,1.1-2,1.9ZM76.4,52.5h2.7c0,0,.3-.2.4-.3.2-.3.2-2.6.1-3.1s-.3-.9-.6-.9h-2.6v4.2ZM62.8,81.6c6.6,7.4,21.9,5.6,24.7-4.7,2.3-8.6-3.2-14.7-8.5-20.6-.2,0-3.7-.1-4,0s-1.6,1.4-2,1.6c-2.2,1.3-4.2,1.1-6.7,1.1-2.4,2.7-4.8,5.7-5.8,9.3s-.8,9.7,2.4,13.3Z"/>
      <rect class="st0" x="37.6" y="21" width="5.4" height="5.4"/>
      <path class="st0" d="M32.2,21v5.4h-5s-.3.2-.3,0v-5.3h5.3Z"/>
      <rect class="st0" x="31.5" y="32.2" width="7.7" height="3.6"/>
      <path class="st0" d="M74.9,60.7v3.6h4v3.4h-7.2v2.2c0,0,0,.2,0,.3h5.1c.6,0,1.6,1.1,1.7,1.7.2.9,0,1.6,0,2.5s.2,3.4-.3,4.2-.9.9-1.1.9h-2.2v3.3h-3.6v-3.3h-3.8v-3.6c-.1,0,7.2,0,7.2,0,0,0,.2-.2.2-.2v-1.9h-5.2c-.6,0-1.5-.9-1.7-1.4-.3-.9-.3-4.8-.2-5.9s.2-1.5.7-2,.9-.6,1-.6h1.8v-3.3c1.2,0,2.4-.3,3.6,0Z"/>
    </g>
  </g>
</svg>