<?xml version="1.0" encoding="UTF-8"?>
<svg id="Layer_1" xmlns="http://www.w3.org/2000/svg" version="1.1" viewBox="0 0 100 100">
  <!-- Generator: Adobe Illustrator 29.5.1, SVG Export Plug-In . SVG Version: 2.1.0 Build 141)  -->
  <defs>
    <style>
      .st0 {
        fill: #341639;
      }
    </style>
  </defs>
  <g id="OVe9gM.tif">
    <path class="st0" d="M62.5,5.5h7.5v8.3h-2.8v3.1h-2.9v1.9h5c-.2-.4-.3-2.6,0-2.6h5.6v2.8s-.2.2-.2.2h-2.5v2.1h2.6v3.1h-5.7v-2.4s.2-.1.2-.2h-5v2.6h-10.4v-2.6h-4.5v4.9h2.6v2.8h2.8v2.6h2.6v2.6h2.8v2.8h2.6v5.5h2.6v15.9h2.8v2.8h2.6v16.5h-2.6v2.8h-2.6c.1.4.4,2.8,0,2.8h-2.5v2.6h-8.3v2.4h12.6v-2.8h5.2v-2.8h2.9v-2.8h3.1v5.8h-2.8v2.8h-2.6v2.6h-2.8v2.9h-5v2.5s-.2.2-.2.2h-20.7v-2.8h-6.3v-2.9h-10.8c-.5,0,0-1,0-1.2,0-.5-.2-.9-.2-1.4h-2.6v-2.8h-2.8v-10.9s.2-.2.2-.2h2.5v-2.4h2.6v-2.8l-2.6-.2v-10.9h2.6c0-.4-.2-2.4.2-2.4h2.3v-2.9h5.2v-2.6h16.8s.2-.2.2-.2v-4.6h-2.7s-.2-.2-.2-.2v-2.5h-2.3s-.2-.2-.2-.2v-2.4h-2.6v-2.9h-2.8v-2.8h-2.4v-5.2h-2.6V10.9h2.6v-2.6h2.4v-2.8h3.1v-2.8h18.2s.2.2.2.2v2.5ZM59.2,6h-12.3v2.6h-2.8v2.6h-2.6v2.6h-2.6v13h2.6v5.3h2.3s.2.2.2.2v2.4h2.5c.4,0,.1.9.1,1.1,0,.6.3,1.1,0,1.7h2.5s.2.2.2.2v2.5h2.5s.2.2.2.2v2.5h2.6v11h-2.1v5.2h-3.1v2.8h-2.8v2.9h-11.7v-3.2h2.8v-2.8h8.6v-2.4h2.9v-2.4h-11.5v2.8h-5.3v2.4h-2.6v2.8h-2.6v5h2.5c.4,0,.3,2.4,0,2.8h5.3v2.9h10.2v-2.9h5.8v-2.8h2.8v-2.4h2.8c0-1,.4-1.9,0-2.9h2.8v-5.2h2.4v-10.5h-2.4v-5.2h-2.6v-3.1h-2.8v-2.6h-2.8v-2.4h-2.6v-2.8h-2.6v-3.2h-2.8v-7.8h2.8v-5.2h3.1l-.2,2.6h2.8v2.6h4.7v2.6h4.4v-4.5h-4.4v-3.2h7.1v-2.8h2.9v-2.3h-7.6c-.2.4.4,2.6,0,2.6h-3.4s-.2-.2-.2-.2v-2.4s.2-.2.2-.2h3.5v-2.3ZM65.1,61.9h-2.4c0,.2.2.4.2.4v2.5h-2.6v10.5h-2.8v2.8h-6.8v2.8h-13.3v2.8h-5.7v-3.2h2.6v-2.8h13.3c-.3-.7-.1-1.5-.2-2.3h-15.2v-2.8h-2.1c.2.4.3,2.8,0,2.8h-2.5v2.8h-2.8v5h2.8v2.8h2.8v2.8h10.7v2.6h6.5v2.9h14.7v-2.6h-12v-2.6h-5.8v-3.1h7.3v-2.8h7.9v-2.8h2.8v-2.8h2.8c-.2-.4-.3-2.6,0-2.6h2.3v-10.2h-2.6v-2.7s.2-.2.2-.2ZM57.3,72.6v-2.7c0-.4-.9,0-1.2,0-.5,0-1-.2-1.5-.2v2.9h-5.8v2.4h5.7c0-.4-.2-2.4.2-2.4h2.7Z"/>
  </g>
</svg>