<?xml version="1.0" encoding="UTF-8"?>
<svg id="Layer_1" xmlns="http://www.w3.org/2000/svg" version="1.1" viewBox="0 0 100 100">
  <!-- Generator: Adobe Illustrator 29.5.1, SVG Export Plug-In . SVG Version: 2.1.0 Build 141)  -->
  <defs>
    <style>
      .st0 {
        fill: #3f2243;
      }
    </style>
  </defs>
  <g id="ECcPCh.tif">
    <g>
      <path class="st0" d="M55.2,4.1v7.9h3.5v-3.8h4v-4.1h6.2v18.6h3.3v7h3.6v10.5h3.5v7h3.3v7h3.6v3.4s.2.2.2.2h3.2v17.4c0,.3-.3,0-.3,0h-3.1v7.1h-17.2v-3.5h-3.6v-3.6c-1.1-.1-2.3.2-3.4,0v-3.5h-3.1v-3.5h-6.7v14.1h3.3v13.7h-27.1v-3.3h-7.1v-3.5h-6.9v-3.4h-3.4v-31.6s-.2,0,0-.2c.1-.2.2,0,.2,0h3.2v-10.5h3.5v-6.7s.1-.2.2-.1h3.1c0,0,0-6.7,0-6.7h3.4v-3.7h3.6v-3.7h3.3v-3.6h10.6v-7.1h3.4v-3.8h3.5v-4.1h6.5ZM51.7,11.8h-2.8v3.9c0,0-.3.2-.4.2h-3c0-.1,0,7,0,7h-3.8v7.6h-3.6v-4.1h-2.8v3.8s.2.3,0,.3h-3.7v6.6c.1,0-3.5,0-3.5,0v6.7c0,.3-.3,0-.3,0h-3c-.3,0,0,.3,0,.3v6.5h-3.5v7.3h-3.4v10.3h-3.6v14.1h3.6v3.5h6.7s.2.2.2.2v3s-.2.2-.1.3h7v3.4h20.1v-6.7h-3.3v-17.7h-3.3v-3.5h-7.1v-3.5h-3.1v-17.5h3.5v14.1h3.4v3.5h7.1v3.4c.1,0,.2,0,.3,0h9.5v-3.4h6.6v3.5h-3.1v3.5h3.1v3.5h3.6v3.6h3.5v3.4h9.9v-6.8s-.2-.2-.2-.2h-6.7v-10.5h3.6v3.2s.2.2.2.2h3.2v7.1c0,0,.1-.1.2-.1h2.8c0,0,.2.2.4.1v-10.5h-3.5v-3.4h-3.5v-7.3h-3.3v-6.7h-3.1s-.2.2-.3.1v-10.6h-3.7v-7h-16.7v-14.5ZM65.3,11.8h-3.1v4.1h-3.5c0-.1,0,6.9,0,6.9h6.6v-10.9Z"/>
      <path class="st0" d="M61.9,33.4v3.5h3.4v10.5h-3.5v-6.7h-3.1v6.7c-.1,0-.3.1-.3.1h-6.7v-7.1h6.8s.2-.2.2-.2v-3.2h-7v-3.6h10.2Z"/>
    </g>
  </g>
</svg>