<?xml version="1.0" encoding="UTF-8"?>
<svg id="Layer_1" xmlns="http://www.w3.org/2000/svg" version="1.1" viewBox="0 0 100 100">
  <!-- Generator: Adobe Illustrator 29.5.1, SVG Export Plug-In . SVG Version: 2.1.0 Build 141)  -->
  <defs>
    <style>
      .st0 {
        fill: #3f2243;
      }
    </style>
  </defs>
  <g id="JNAjoF.tif">
    <g>
      <path class="st0" d="M64,6.3v3.5h4.3v3.9h8.1v3.5h4.4v4h4v7.8h3.9c.3.7,0,1.3,0,1.9s.3,1.4,0,2.1h3.6v26.7h-3.4v6h-3.5v4.4h-4v6.5h-5.1v16.9H23.6v-16.9h-5.3v-6.5h-3.5v-4.4h-3.6v-6h-3.5v-26.7h3.9c0-1.4-.3-2.7,0-4h3.9v-7.8h4v-3.8s.2-.2.2-.2h4.6v-3.5h7.5v-3.9h4v-3.5h28.1ZM59.6,11.1h-19.3c0-.1,0,3.1,0,3.1h-4.2v3.8h-7.9v3.6h-4.9v3.8h-3.4v7.9h-3.7c-.3,0,0,.3,0,.3v3.4h-4.2v18h3.5v6.5h3.4v4.2h3.7s.2.2.2.2v6.1h6.5v3.3c.8.1,2.5-.2,3.2,0s.7.8.9,1c1.5,1.3,3.1,2.4,4.9,3.3v4.8c-2.3-.4-4.4-1.6-6.3-2.9s-1-.9-1.1-.9h-2.8v8.1h43.5v-8.1h-2.5c-.1,0-2,1.5-2.4,1.7-1.3.8-2.8,1.5-4.3,1.9s-1.1.3-1.1,0v-4.6c1.6-.7,3.1-1.6,4.4-2.7s1.5-1.6,1.6-1.6c.6-.2,2.2.1,2.9,0v-3.3h6.6v-6.2h3.9v-4.2h3.6v-6.5h3.4v-18h-3.6v-3.8h-3.8v-7.9h-4v-3.8h-4.4v-3.6h-8.1v-3.8h-4.4v-3.1Z"/>
      <path class="st0" d="M55.5,21.6v3.8h3.6v7.8h3.5v22h1.7v-11.6h2.9v-14.4h4.3v19.3h-2.9v7.6h-2.9v4.4h-3.8c0,.7-1.3,4.6-1.7,4.8s-.5-.2-.7,0c-1.2,2.4-2.6,4.8-4.4,6.8s-1.5,1.8-1.9,2-.2.1-.4.1c-1.2.2-4.5.1-5.7,0s-1.4-1-1.9-1.5c-1.9-2.1-3.7-5-4.8-7.6-.3,0-.5.5-.7.1s-.7-1.7-.9-2.1c-.3-.9-.6-1.8-.7-2.7h-4v-4.4h-2.9v-7.6h-2.9v-19.3h4.3v14.4h2.9v11.6h1.3v-21.8s.2-.2.2-.2h3.6v-7.8h3.5v-3.8h11.3ZM51.9,26.2h-4v3.5h-2.9v7.7h-3.4v14.9c.2,4.8,2.7,11.1,5.4,15s2.2,3.2,3.7,2.7c2.9-1,6-9.6,6.8-12.4s.9-2.8.9-3.5v-16.7h-3.5v-7.7h-3v-3.5Z"/>
      <path class="st0" d="M23,41.7v9.4h3.1s.2.2.2.2v5.8h3.1v5.1h3.4v3.6h3.8v7.8h-4.2c.1-1.1-.2-2.3,0-3.4h-3.9v-4.4h-3.1v-5.5h-3.5v-5.7h-3.3v-12.9h4.4Z"/>
      <path class="st0" d="M81.3,41.7v12.9h-3.1v5.7h-3.5v5.5c-.8,0-1.5,0-2.3,0s-.8-.2-.8,0v4.4h-3.9v3.4h-4.2v-7.8h3.8v-3.6h3.1v-5.1h3.4v-5.9c.1,0,.3-.1.3-.1h2.9v-9.4h4.3Z"/>
      <path class="st0" d="M52.4,43.9c1.9,1.8,2.1,5.5,1.5,7.9-.8,3.5-4.1,6.9-6.7,2.5s-1.7-7.3.3-9.8c1.3-1.6,3.2-2.1,4.8-.6Z"/>
    </g>
  </g>
</svg>