<?xml version="1.0" encoding="UTF-8"?>
<svg id="Layer_1" xmlns="http://www.w3.org/2000/svg" version="1.1" viewBox="0 0 100 100">
  <!-- Generator: Adobe Illustrator 29.5.1, SVG Export Plug-In . SVG Version: 2.1.0 Build 141)  -->
  <defs>
    <style>
      .st0 {
        fill: #3f2243;
      }
    </style>
  </defs>
  <g id="w9MBlX.tif">
    <g>
      <rect class="st0" x="87.1" y="46.4" width="11.4" height="4.2"/>
      <path class="st0" d="M27.1,35c1.2-1.2,2.3-2.6,3.6-3.7h38.9c4.8,5.3,9.7,10.4,14.4,15.7l-34.1,42L15.8,47.1c3.7-4,7.5-8.1,11.3-12.1ZM40.1,35.6h-7.6c-3.4,3.6-6.8,7.2-10.1,10.9h11.4c.2,0,.4-.1.5-.3l5.7-10.6ZM47.8,35.6c-.8,0-1.5,0-2.3.1s-.5-.2-.7,0c-1.7,3.3-3.7,6.5-5.4,9.8s-.3.6-.4.9h8.7v-10.9ZM55.1,35.6h-2.7v10.9h8.7l-6-10.9ZM67.7,35.6h-7.9l5.9,10.9h12c0-.2-.2-.3-.3-.5-2-2.5-4.7-5-6.9-7.4s-2.6-3-2.8-3ZM34.3,50.7h-10l18,22.4-8-22.4ZM47.8,50.7h-8.7l8.7,24.9v-24.9ZM60.9,50.7h-8.5v24.9l8.5-24.9ZM75.5,50.7h-9.6l-8.2,22.3,17.8-22.3Z"/>
      <rect class="st0" x="47.8" y="11" width="4.6" height="12.7"/>
      <path class="st0" d="M22.4,16.8c.6-.2,7.8,7.9,9,8.8,0,.2-2.6,2.8-3,3.1l-9-8.9c.6-.4,2.6-2.8,3-2.9Z"/>
      <path class="st0" d="M68.9,25.3l8.5-8.5c.1,0,.2,0,.3,0,.9.6,1.9,2.2,2.8,2.9l-9,9c-1-1-2.1-2-2.9-3.1l.3-.4Z"/>
      <polygon class="st0" points="25.9 67.8 28.8 70.9 20.1 79.6 17.1 76.6 25.9 67.8"/>
      <path class="st0" d="M74.3,68l8.5,8.5c0,.2,0,.2-.1.3-.6.9-2.1,1.8-2.7,2.7l-8.6-8.5c0-.1,0-.2,0-.3s1.3-1.4,1.5-1.6c.4-.4.8-.8,1.3-1.1h.2Z"/>
      <rect class="st0" x="1.5" y="46.4" width="11.4" height="4.2"/>
    </g>
  </g>
</svg>