<?xml version="1.0" encoding="UTF-8"?>
<svg id="Layer_1" xmlns="http://www.w3.org/2000/svg" version="1.1" viewBox="0 0 100 100">
  <!-- Generator: Adobe Illustrator 29.5.1, SVG Export Plug-In . SVG Version: 2.1.0 Build 141)  -->
  <defs>
    <style>
      .st0 {
        fill: #3f2243;
      }
    </style>
  </defs>
  <g id="kWpP8N.tif">
    <g>
      <path class="st0" d="M54,1.2v3.2c-.1,0,3.2,0,3.2,0v3h3.3v8.3h3v5.8h2.9v-5.8h2.9v-2.5h6.3v2.9h-2.8v2.5h-3.2v6h3.2v2.9h9v-2.9h3.3v5.5h-3.2c.2,1-.2,2,.1,3h-6.2v12.3h2.9s.3-.2.3,0v18.3h2.2v9h-2.2v2.8h-3.2v5.8h3.2v3.5h2.8v5h-6.2v-2.6h-3c-.3,0,0-.5,0-.7,0-.8,0-1.6,0-2.3h-3s0,.1-.2.1v-5.7s-.2-.2-.2-.2h-2.5v5.7h-3v5.6h-3.3v3.5h-3.3v2.7h-3.2v2.8h-9.4v-2.8h-3v-2.7h-3.3v-3.5h-3.3v-5.6h-3v-5.7h-2.8v5.7h-3.2v3h-2.9v2.6h-6.2v-5h2.8v-3.5h2.9v-5.8h-2.9v-2.8h-2.3v-9h2.3v-18.4h2.9v-12.4h3.3v-5.5h3v-2.9h3.3v-3.1h2.8v-5.8h3.1s.2-.2.2-.2V7.4h3.3v-3h3V1.2h9.4ZM50.8,7.6h-2.8v2.7h-2.9v2.9h8.7v-2.9h-2.9v-2.7ZM41.6,15.7h-3v2.9h3v-2.9ZM60.1,15.7h-2.9v2.9h2.9v-2.9ZM56.9,18.6h-15.1v2.9h15.1v-2.9ZM44.5,30.2h-9.3v3c0,.2-.6,0-.8,0-.8,0-1.5,0-2.3,0v3.1h-2.8v10.6h2.9v-3.1h9.7c.1,0,.2.3.2.4.1.9-.1,1.9-.1,2.8h6v14.5c0,0-.1-.1-.2-.1h-2.6c-.3,0,0,.3,0,.3v2.3h8.5v-2.6h-2.8s-.2-.2-.2-.2v-14.2h6v-3.1h9.8s.1.1.1.2c-.2,1-.1,2,0,3h2.6v-10.6c.1,0-2.9,0-2.9,0v-3.1h-3.3v-3h-9.1v3c0,.2-.3,0-.3,0h-9.2v-3ZM41.6,47.1h-8.9v2.9h8.9v-2.9ZM66.5,47.1h-9.3c-.3,0,0,.3,0,.3v2.6h9.4v-2.9ZM26,48.3h-2.9v12.6h2.9v-12.6ZM75.8,48.3h-2.9v12.6h2.9v-12.6ZM44.7,50.2h-2.8v4.1h-9.6v-1.7s-.1-.4-.2-.4h-2.7v11.7h3v6h2.6v-3h3.4v-3h3.5v-5.5h2.8v-8.2ZM56.9,50.2h-2.9v8.2h3.2v5.2s.2.2.1.3h3v3h3.2v3h3v-6h2.8v-11.7h-2.7v2.1h-9.7v-4.1ZM26,64h-2.9v3h-2.7v2.9h2.7v3h2.9v-3h2.9v-2.9h-2.9v-3ZM75.7,64h-2.8v3h-2.8v2.9h2.8v3h2.8v-3h2.5v-2.9h-2.5v-3ZM56.9,67h-15v2.6h15v-2.6ZM41.6,69.8h-3v8.6h6.1v-2.9h9.4v2.8s-.1,0-.1.2h6.3v-8.6h-3v3h-15.6v-3Z"/>
      <path class="st0" d="M56.8,36v5.5h-2.8s-.4.1-.4.2c0,.9,0,1.8.1,2.6h-9.1v-2.8h-2.7v-5.5h14.9ZM53.4,38.9h-8.3v2.6h8.3v-2.6Z"/>
    </g>
  </g>
</svg>