<?xml version="1.0" encoding="UTF-8"?>
<svg id="Layer_1" xmlns="http://www.w3.org/2000/svg" version="1.1" viewBox="0 0 100 100">
  <!-- Generator: Adobe Illustrator 29.5.1, SVG Export Plug-In . SVG Version: 2.1.0 Build 141)  -->
  <defs>
    <style>
      .st0 {
        fill: #3f2243;
      }
    </style>
  </defs>
  <g id="n0iCyo.tif">
    <g>
      <path class="st0" d="M73.4,4v3.5h3.8v3.1h3.6v22.8h3.2v22.8h-3.4v9h-3.4v9.7h-3.2v7h-3v7h-3.7v3.6h-3.5v3.5h-27.7v-3.3s-.2-.2-.2-.2h-3.4v-3.6h-3.5v-7h-3.1v-7h-3.4v-9.7h-3.5v-9h-3.2v-22.8h3.1V10.8s.2-.2.2-.2h3.3v-3.1h3.8v-3.2s-.2-.2-.1-.3h47.2ZM69.9,7.5H30.1v3.5h-3.6v3.1h-3.5v3h3.7v3.5h6.7v3.4h33.6v-3.4h6.4v-3.5h3.6v-3h-3.6v-3.1h-3.5v-3.5ZM26.3,23.9h-3.4v13.1h-3.4v15.9s.2.2.2.2h3.7s.2-.2.2-.2v-10.4s-.2-.3,0-.3h2.7v-8.8h3.1v-5.6h-2.6c-.2,0-.6,0-.7-.2v-3.7ZM77,23.9h-3.4c0,.1.1.3.1.3v3.4s-.2.2-.2.2h-2.9v5.6h3.1v8.8h2.9v10.9h3.7v-16.1h-3.4v-13.1ZM47.8,27.8h-14.1s-.2-.2-.3-.1v5.8h3.5v8.8h3v11.8c0,.3.3,0,.3,0h2.2v-9.5h2.3v-11.2h3.1v-5.6ZM67,27.8h-15.1v5.3s-.2.3,0,.3h3.4v7.1h2.4v9.8c.1,0,.3-.1.3-.1h2.5v-8h2.9v-8.8h3.6v-5.6ZM33.2,37h-2.9v8.2h-2.7s0-.2-.2-.1v8.3h-3.5c0,.2-.1.4-.1.4v8h2.6v9.5h3.4v6.7h3v7c0,.3.2.3.5.3v-5.7s.2-.2.2-.2h2.6s0,.2.2.1v-13h3.1v-11.9h-3.2v-9.2h-3v-8.4ZM51.6,37h-2.9v8h-2.5v10.6h-3.1v14.1h-2.9v12.1s-.2.2-.2.2h-3.2v7h2.9c.2,1.1.2,2.2,0,3.2h20.6v-3.2h2.9v-7h-2.9v-12.6h-3.1v-18.5h-3v-10.2h-2.6v-3.6ZM69.9,37h-2.8v8.4h-2.9v9h-3.2v10.8h2.9v16.5h2.8s.3-.2.3,0v3.5s.5,0,.5,0v-7.3h2.9v-6.7h3.1v-9.5h2.6v-8.4h-3.4v-9.4h-2.9v-7Z"/>
      <path class="st0" d="M61.3,17.1h-3.6v3h-15.5v-3h-3.6v-3.6h3.6v-2.9h15.3s.2.2.2.2v2.4s-.2.3,0,.3h3.4s.1.1.2.2c0,.2-.1,1,0,1.3,0,.7,0,1.4.1,2.1Z"/>
    </g>
  </g>
</svg>