<?xml version="1.0" encoding="UTF-8"?>
<svg id="Layer_1" xmlns="http://www.w3.org/2000/svg" version="1.1" viewBox="0 0 100 100">
  <!-- Generator: Adobe Illustrator 29.5.1, SVG Export Plug-In . SVG Version: 2.1.0 Build 141)  -->
  <defs>
    <style>
      .st0 {
        fill: #3f2243;
      }
    </style>
  </defs>
  <g id="fugpSf.tif">
    <g>
      <path class="st0" d="M68.2,8.2h3.1c.2,0,0,.3,0,.3v2.7h2.9v9.4s.2.2.2.2h3v12.7h-3.1v3h-2.8v6.1h3v4.1h5.2v3.3h3.3v2.9h3.3v24.6h7.8v10.1h-6v7.2h-3.4v-7.2H15.4v7.2h-3.7v-7.2h-5.8v-10.1h6.1c-1.2-9.1-2.6-18.2-3-27.5h31.3l.2,2.8c.5,0,.9,0,1.4,0s.4.1.4.1c.3,0,0-.3,0-.3v-2.6s.2-.2.2-.2h3.1v-3.1h5.8v-3.8h-3.4v-2.8h-2.6v-6.7h-3s-.3.2-.3,0v-12.5c0-.2.3,0,.3,0h2.8v-9.5c0-.2.5,0,.7,0,.7,0,1.4,0,2.1,0v-2.8h3v-3h17s.2.2.2.2v2.7ZM68,8.7h-16.3v2.9c0,.2-.3,0-.3,0h-2.8v12h6.1c0,.1-.1.2-.1.3v7.8s.2.2.2.2h3.9v2.2s.1.2.1.3h-7.1v-7.6h-3.4v-2.8c0-.6-.4-.3-.7-.3-.7,0-1.3-.2-2,0v8.4h3.4v7.4h2.9v3s.2.2.2.2h11.5c1.2,0,2.8-1.6,3.6-2.5s.8-.9.8-1c.1-.3,0-1.3,0-1.8s-.1-1.1-.1-1.5c0-.8,0-1.6,0-2.3h2.7v-2.8h3.5v-6.4h-3.5v-12.6h-2.7v-2.9ZM68.1,43.2c-.2,0-.2,0-.3.2-1.2.9-3.2,3.4-4.7,3.4h-8.4c.2.3,0,.5,0,.8,0,.8,0,1.6,0,2.4h-6.1c.2,1.1-.1,2.2,0,3.3h-5.8c0,4.9-.2,10,.3,15h2.1c1.6-1.7,3.1-3.6,4.8-5.3s3.7-3.9,4.1-4,2.1.1,2.1-.5v-2.2c0-.4,2.6,0,2.9,0v-3.6h2.9v-2.6s.1-.2.1-.3h2.6s.3.2.3,0v-2.8h2.9s.2-.2.2-.2v-3.6ZM74.1,46.8h-2.2c-.1,0-1.4,1.9-1.7,2.2-5.4,6.5-12.5,12.1-18.5,18.2s-1,.7-1.1,1.2h11.3c.2,0,1-.2,1.2-.3,1.6-.6,4.4-5.2,5.3-6.8,1.5-2.8,2.6-5.8,3.9-8.8h1.8v-5.8ZM79.5,50.1h-2.1c0,1.6,0,3.2,0,4.8s.3,1.4,0,1.4h-2.9v5.9h2.9v12.6h-9.4v-2.3l-5.3-.4h-5.9c0-.1,0,5.4,0,5.4h25.8v-24.2h-3.1v-3.1ZM37.1,53.3H12.9s-.1-.2-.2-.1c.4,6.8,1.3,13.7,2.5,20.4h25.5l-3.4-20.4c-.1,0-.2.1-.3.1ZM73.9,62.3h-2c-.9,2.6-2.3,5-3.6,7.3,0,.4,1.5,1.7,1.7,1.7h3.9v-9ZM53.3,71.8h-9.3c-.1,0-.1,0-.1.1,0,.8.6,1.9.5,2.7h8.9v-2.8ZM90.7,80.9H9.4v3.1h81.2s.2-.2.2-.2v-3Z"/>
      <path class="st0" d="M60.7,39.6h-7.8s-.2-.2-.2-.2v-3.1h7.9c0,.1.2.4.2.4v2.9Z"/>
      <rect class="st0" x="58" y="23.7" width="6.7" height="3.4"/>
      <path class="st0" d="M27.6,61l.3,4.1h-4.3c0,0-.2-.2-.2-.3l-.3-3.9h4.4Z"/>
    </g>
  </g>
</svg>