<?xml version="1.0" encoding="UTF-8"?>
<svg id="Layer_1" xmlns="http://www.w3.org/2000/svg" version="1.1" viewBox="0 0 100 100">
  <!-- Generator: Adobe Illustrator 29.5.1, SVG Export Plug-In . SVG Version: 2.1.0 Build 141)  -->
  <defs>
    <style>
      .st0 {
        fill: #3f2243;
      }
    </style>
  </defs>
  <path class="st0" d="M80.5,32.3h-12.4v5.6h-3.5v12.9h-2l-.2-42h-10.4v-4.8h-11.5v4.9s-.2.2-.2.2h-11.4v5.7h-9.4v59.9h4.6v21.3h43.5v-21.3h4.6v-3.7h4.2v-3.6s-.2,0-.1-.2h4.3v-34.9ZM29.3,92v-8.6h33.1v8.6H29.3ZM75.6,63h-4.2v4.2h-4v3.8h-4.7v4h-4.6v4h-22.9v-3.9h-5.8v-4.2h-4.6V19.4h4v25.6h5.2V13.8h4.7v30.6s.2.2.2.2h5.7V8.5h3.5v36.1h5.3s.2-.2.2-.2V13.6h3.9v41.5h11.8v-12.7s.2-.2.2-.2h3.1v-5.6h3v26.3Z"/>
</svg>