<?xml version="1.0" encoding="UTF-8"?>
<svg id="Layer_1" xmlns="http://www.w3.org/2000/svg" version="1.1" viewBox="0 0 100 100">
  <!-- Generator: Adobe Illustrator 29.5.1, SVG Export Plug-In . SVG Version: 2.1.0 Build 141)  -->
  <defs>
    <style>
      .st0 {
        fill: #c6ecae;
      }
    </style>
  </defs>
  <circle class="st0" cx="50" cy="50" r="10.8"/>
  <path class="st0" d="M75.2,31c-.6-1.5-1.3-2.6-2.4-3.8-1.2-1.2-2.2-1.9-3.8-2.4-1.2-.4-2.9-1-6-1.1-3.4-.2-4.5-.2-13-.2s-2.1,0-2.9,0h0c-6,0-7.1,0-10.2.2-3.1.2-4.8.6-6,1.1-1.5.6-2.6,1.3-3.8,2.4s-1.9,2.2-2.4,3.8c-.4,1.2-1,2.9-1.1,6-.2,3.4-.2,4.5-.2,13s0,9.6.2,13c.2,3.1.7,4.8,1.1,6,.6,1.5,1.3,2.6,2.4,3.8s2.2,1.9,3.8,2.4c1.2.4,2.9,1,6,1.1,3.4.2,4.5.2,13,.2s9.6,0,13-.2c3.1-.2,4.8-.6,6-1.1,1.5-.6,2.6-1.3,3.8-2.4s1.9-2.2,2.4-3.8c.4-1.2,1-2.9,1.1-6,.2-3.4.2-4.5.2-13s0-9.6-.2-13c-.2-3.1-.7-4.8-1.1-6ZM50,66.6c-9.2,0-16.6-7.4-16.6-16.6s7.4-16.6,16.6-16.6h0c9.2,0,16.6,7.4,16.6,16.6s-7.4,16.6-16.6,16.6ZM67.2,36.6c-2.1,0-3.8-1.7-3.8-3.8s1.7-3.8,3.8-3.8h0c2.1,0,3.8,1.7,3.8,3.8s-1.7,3.8-3.8,3.8Z"/>
  <path class="st0" d="M93.7,25.2c-.3-3.5-.9-5.9-2.1-8.4-1-2.1-2.1-3.6-3.8-5.1-2.9-2.8-6.4-4.5-10.6-5.1-2.1-.3-2.4-.4-13-.4h-14.2c-18.3,0-23.6,0-24.7,0-3.8.3-6.1.9-8.7,2.1-2,1-3.5,2.1-5,3.7-2.8,2.9-4.5,6.4-5.1,10.6-.3,2.1-.4,2.5-.4,13v14.2c0,18.2,0,23.6,0,24.7.3,3.7.9,6,2.1,8.5,2.3,4.8,6.7,8.4,12,9.7,1.8.4,3.8.7,6.3.8h46.4c2.9-.2,4.6-.4,6.6-.9,5.3-1.3,9.6-4.9,12-9.8,1.2-2.4,1.8-4.8,2.1-8.3V25.1h0ZM82.2,63.3c-.2,3.4-.7,5.8-1.5,7.9-.8,2.1-2,3.9-3.8,5.7s-3.6,2.9-5.7,3.8c-2.1.8-4.4,1.3-7.9,1.5s-4.6.2-13.3.2-9.9,0-13.3-.2c-3.5-.2-5.8-.7-7.9-1.5-2.1-.8-3.9-2-5.7-3.8s-2.9-3.6-3.8-5.7c-.8-2.1-1.3-4.4-1.5-7.9s-.2-4.6-.2-13.3,0-9.9.2-13.3c.2-3.4.7-5.8,1.5-7.9.8-2.1,2-3.9,3.8-5.7s3.6-2.9,5.7-3.8c2.1-.8,4.4-1.3,7.9-1.5,3.5-.2,4.6-.2,13.3-.2h0c8.8,0,9.9,0,13.3.2,3.5.2,5.8.7,7.9,1.5,2.1.8,3.9,2,5.7,3.8s2.9,3.6,3.8,5.7c.8,2.1,1.3,4.4,1.5,7.9.2,3.5.2,4.6.2,13.3s0,9.9-.2,13.3Z"/>
</svg>