<?xml version="1.0" encoding="UTF-8"?>
<svg id="Layer_1" xmlns="http://www.w3.org/2000/svg" version="1.1" viewBox="0 0 100 100">
  <!-- Generator: Adobe Illustrator 29.5.1, SVG Export Plug-In . SVG Version: 2.1.0 Build 141)  -->
  <defs>
    <style>
      .st0 {
        fill: #3f2243;
      }
    </style>
  </defs>
  <path class="st0" d="M78.7,37v-5.7h-3.5v-3.3h-3.5s-.2-.1-.2-.2v-3.3h-5.9v-3h-9v-3.1s.2-.1.2-.1h3.6V7.4h-3.6s-.2-.1-.2-.1v-3.3h-13.3v3.3h-3.9v11h3.7s.2.1.2.1v3.1h-8.8s-.2.1-.2.1v2.9h-5.9v3.4h-3.8v3.3h-3.5v5.7h-3.3v26.4h3.3v5.4h3.5v2.8s.1.2.2.2h3.6v3.5h5.9v3.2h9v3.1s-.2.1-.2.1h-3.6v10.9h3.6s.2.1.2.1v3.3h13.3v-3.3h3.9v-11h-3.7s-.2-.1-.2-.1v-3.1h8.9c.2-1.1.1-2.2,0-3.2h6v-3.5h3.6v-2.9h3.5v-5.3h3.4v-26.5h-3.4ZM43.5,7.5h13v10.7h-3.5v3.3h-5.8v-3.3h-3.5s-.2-.1-.2-.2V7.5ZM56.4,81.8s.2.1.2.2v10.5h-13v-10.7h3.5v-3.3h5.8v3.3h3.5ZM78.4,59.9h-3.2s-.2.1-.2.1v5.3h-3.5c-.2,0,0,.2,0,.2v2.6s-.1.2-.2.2h-3.3v3.4h-6.2s-.2.1-.2.2v3h-23.5v-3.1h-6.3v-3.4h-3.5v-3h-3.4v-5.3s-.2-.1-.2-.1h-3.2v-19.4h3.3v-6h3.4v-3.3h3.5v-3.2h6.3v-3.2h23.2v3.2h6.5c.2,0,0,.4,0,.5,0,.9.2,1.8.1,2.7h3.3v3.3h3.8v5.7h3.2v19.7Z"/>
  <path class="st0" d="M71.5,37.6h-3.3v-3.4c-.3-.3-3,0-3.4,0,0,0-.2,0-.2-.1v-2.7h-4.6v-3.1h-19.8s-.2.1-.2.1v3h-4.7v2.9c-1.1,0-2.2-.2-3.2-.1-.1,0-.4,0-.4.2v3.3h-3.3v4.5h-3.1v15.5s.1.1.2.1h2.9v4.8h3.3v3.1s.1.1.2.1h3.2c0,0,.2.2.2.2v2.7h4.7v2.8h19.6v-2.8h4.9v-2.9h3.5c0-.1.1-.3.1-.3v-2.9h3.3v-4.8h3v-15.7h-3v-4.5ZM70.8,54.8h-2.7v4.6h-3.3v2.9s-.1.1-.2.1h-3.3v2.9h-5v2.9h-12.9v-2.9h-4.9v-2.9h-3.4v-3h-3.1v-4.6h-2.7v-9.5h2.7v-4.6h3.1v-3.1h3.4v-3h5.1v-2.9h12.8v2.9h4.9v3h3.3v3.1h3.3v4.6h2.8v9.5Z"/>
  <rect class="st0" x="47.2" y="10.8" width="5.7" height="5.6"/>
  <rect class="st0" x="47.1" y="83.7" width="5.7" height="5.6"/>
</svg>