<?xml version="1.0" encoding="UTF-8"?>
<svg id="Layer_1" xmlns="http://www.w3.org/2000/svg" version="1.1" viewBox="0 0 100 100">
  <!-- Generator: Adobe Illustrator 29.5.1, SVG Export Plug-In . SVG Version: 2.1.0 Build 141)  -->
  <defs>
    <style>
      .st0 {
        fill: #3f2243;
      }
    </style>
  </defs>
  <g id="Deru6Y.tif">
    <g>
      <path class="st0" d="M38,5v3.1h3.5v3.2h3.6v8.7h3.2v8.8h-3.2v5.3l-2.4,2.4c0,.4.1,0,.2,0h14.4l-2.4-2.5v-5.3h-3.2c-.3,0,0-.3,0-.3v-8.5h3.2v-8.5s.2-.2.2-.2h3.1v-3.2h3.5v-3.1h16.2v3.1h3.4v3.2h3.5v8.3h3.5v9.1h-3.5v5.3l-5.1,5h4.1c2.9,2.8,5.6,5.8,8.6,8.5v28.5h-7.9v18.8h-31.9v-43.1h-4.5v43.1H15.5s-.2-.2-.2-.2v-18.7h-7.4v-29.4c2.4-2.4,4.9-4.8,7.2-7.2s.1-.3.2-.3h4.9l-5.1-5.3v-5h-3.5v-9.3h3.5v-8.2h3.5v-3.1s-.1,0-.1-.2h3.4v-3.1h16.2ZM37.7,8.5h-15.6v3.2h-3.2s-.2.2-.2.2v10.6h-3.5v6h3.5v3.8c0,0,0,.5.1.6,2.2,2.1,4.1,4.3,6.4,6.2h9.9s6.2-6.2,6.2-6.2v-4.3h3.4v-6h-3.4v-10.8h-3.6v-3.2ZM77.3,8.5h-15.6v3.2h-3.4v10.8h-3.2c-.1,0-.2.4-.2.5v5.5h3.4v4.3c2.2,2.1,4.2,4.3,6.4,6.3h9.4s.6-.5.6-.5l6-5.9v-4.2h3.5v-6h-3.5v-10.8h-3.5v-3.2ZM41.3,40.2h-2.3v4.2c-6.8,6.5-13.2,13.3-20,19.8v7.9c9-3.5,17.9-10.9,21.3-20.2s1-3,1-3.7v-8ZM62.7,42.6c-.5-.9-1.5-1.6-2.3-2.4h-15.4v8.2h11v12.4l19-18.2h-12.3ZM35.7,42.6h-18.1l-6,6v24.1h3.6l.2-19.4h3.5v5.9l16.6-16.5ZM84.2,72.7h4.1s.2-.2.2-.2v-23l-.3-.5-6.4-6.4h-3.4v1.8l-22.3,21.6v25.5h24.7v-38.2h3.4c.3,0,0,.3,0,.3v19ZM44.2,91.5v-39.4l-1.1,2.7c-4.6,9.8-13.3,17.3-23.6,20.6s-.4,0-.6,0v16.1h25.2Z"/>
      <path class="st0" d="M30.1,24.8h-5.3v-4.5h5.1c.3.4,0,1,0,1.4,0,1,0,2.1.1,3.1Z"/>
      <path class="st0" d="M39,20.3v4.2s.2.3,0,.3h-4.5v-4.3s.2-.2.2-.2h4.3Z"/>
      <rect class="st0" x="30.3" y="29.1" width="5.2" height="3.7"/>
      <rect class="st0" x="69.7" y="20.3" width="5" height="4.5"/>
      <rect class="st0" x="64.2" y="29.1" width="5.4" height="3.7"/>
      <path class="st0" d="M64.8,20.3v4.5h-4.4v-4.3s.2-.2.2-.2h4.2Z"/>
    </g>
  </g>
</svg>