<?xml version="1.0" encoding="UTF-8"?>
<svg id="Layer_1" xmlns="http://www.w3.org/2000/svg" version="1.1" viewBox="0 0 100 100">
  <!-- Generator: Adobe Illustrator 29.5.1, SVG Export Plug-In . SVG Version: 2.1.0 Build 141)  -->
  <defs>
    <style>
      .st0 {
        fill: #3f2243;
      }
    </style>
  </defs>
  <g id="rLkrMi.tif">
    <path class="st0" d="M33,9.4v2.7h3c0,.9,0,1.8-.1,2.7h2.9v19.8h-2.7c-.3,0,0,.6,0,.7,0,.7,0,1.4,0,2.1h-3v2.7h-2.7v2.9h-5.3v5.6h-2.9c0,.1.1.3.1.3v16.5h2.7v5.6h2.7v2.9h2.9v2.7h2.9v2.9h5.5v2.6h22v-2.6h5.6v-2.9h2.7v-2.7h2.9v-2.9h2.7v-5.6h2.9v-16.8h-2.9v-5.6h-5.7v-2.9h-3v-2.7h-2.9v-2.9h-2.7V14.8h2.7v-2.7h2.9v-2.7c-.1,0,17.2,0,17.2,0v2.7h3.1v2.7c-.1,0,2.7,0,2.7,0,0,.4-.2,2.9.2,2.9h2.6v14.2h-2.7v2.7h-2.9v2.9c.1,0-5.8,0-5.8,0v2.7h2.9v5.7h3v22.5h-3v5.6h-2.9v5.5h-2.9v2.7h-2.9v2.9h-5.4v2.7h-5.6v2.9h-28c-.3,0,0-.3,0-.3v-2.6h-5.6v-2.7h-5.3v-2.9h-3v-2.7h-2.9v-5.5h-2.7v-5.4s-.2-.2-.2-.2h-2.9v-22.3s.2-.2.2-.2h2.9v-5.4s-.2-.3,0-.3h2.7v-2.7h-5.8v-2.9h-2.7v-2.7h-2.7v-14.2h2.7v-2.9h2.7v-2.7h3v-2.7h16.7ZM30.2,17.7h-10.7v2.9h-3c0,0,.1.1.1.2v8.2h2.9v2.7h10.7v-2.7h2.9v-8.3h-2.9v-2.9ZM80.7,17.7h-11.2v2.9h-2.9v8.3h2.9v2.7h11.2v-2.7h2.9v-8.3h-2.8c-.3,0,0-.3,0-.3v-2.6Z"/>
  </g>
</svg>