<?xml version="1.0" encoding="UTF-8"?>
<svg id="Layer_1" xmlns="http://www.w3.org/2000/svg" version="1.1" viewBox="0 0 100 100">
  <!-- Generator: Adobe Illustrator 29.5.1, SVG Export Plug-In . SVG Version: 2.1.0 Build 141)  -->
  <defs>
    <style>
      .st0 {
        fill: #3f2243;
      }
    </style>
  </defs>
  <g id="QvaPVK.tif">
    <path class="st0" d="M54.6,6.3v4.7h3.6v6.3h3.4v12.7h2.8v-4h3.8v-3.4h3.5v14.1h1v-4.1h3.8v12.6s-1,0-1,0v2.6h-3.2v2.6h9.8v11.3h-3.1v5.5s.2.3,0,.3h-3.2s0-.1-.2-.1v5.2h-3.7v3.8h-3.9v4.2h-13.9v-12.9h-1.4v-3.2h-3.5v3.2h-3.6v3.9c0,.4-1.7,0-2,0s-.7.2-1.1,0v4h-3.4v3.9h-3.1v4h-3.5v4.3h-3.3v4.8h-8.1v-3.4h-3.2v-7.9h3.2v-4.1h3.5v-4.7h3.6v-4.2h3.3v-4.3h3.4v-3.9h3v-3.2h-4v-4.9h-3.7v-7.4h-3.3v-14.9h3.4v-4.1h3.6v-7.7h4.6v3.1h5.8c0,.1-.1.2-.1.3v4.9h2.6v-8.8h3.5V6.3h4.2ZM54.1,19.4h-3.7v10.7h-3.5c0,.1.1.2.1.3v3.1s-.1.2-.2.2h-6.6v-9.6h-2.8v3.4h-3.5v9.4h-3.4v4.3h3.4v7.2h3.9v-4h3.2s.2-.1.2-.2v-3.8h3.1s.2-.1.2-.2v-3.7h5.8v-3h3.7v2.8h3.6v8.1h3.9v3.4h6.5v-3.3h4.2v-3.9h-3.9v-7.3c-1.2.1-2.6.2-3.8,0v3.4h-3.2v-3.3h-3.9v-7h-3.4v-7ZM50.4,40.2h-2.2l-10.4,11.9c0,0,0,.2,0,.2.1.5,3,2.6,3.4,3.1.2,0,.2-.4.4-.3s.4.4.5.4c2.2,1.8,4.3,3.8,6.5,5.7l2.4-2.9c.3-.3.9.3,1.1.5.6.5,1.7,1.4,2.2,2,1.1,1.2,1.9,3.9,2.9,5.2.3,3.4.5,6.8.8,10.2h5.8v-3.7s.1-.2.2-.2h3.6s.2-.1.2-.2v-3.8h3.6v-4.9h3.5v-5.7h3.3v-4.1h-14.2v-2.4h-6.5v-3.6c0-.3-1,0-1.2,0-.7,0-1.4,0-2.1,0s-.2.1-.3,0v-4.6h-3.6v-3.1ZM21.5,86.2l3.2,2.4c6.7-8.6,13.5-17.1,20.1-25.8-.3-.4-2.7-2.7-2.9-2.7h-.2c0,.1-20.2,26-20.2,26Z"/>
  </g>
</svg>