<?xml version="1.0" encoding="UTF-8"?>
<svg id="Layer_1" xmlns="http://www.w3.org/2000/svg" version="1.1" viewBox="0 0 100 100">
  <!-- Generator: Adobe Illustrator 29.5.1, SVG Export Plug-In . SVG Version: 2.1.0 Build 141)  -->
  <defs>
    <style>
      .st0 {
        fill: #c6ecae;
        fill-rule: evenodd;
      }
    </style>
  </defs>
  <path class="st0" d="M84,6.3H16c-5.3,0-9.7,4.4-9.7,9.7v67.9c0,5.3,4.4,9.7,9.7,9.7h67.9c5.3,0,9.7-4.4,9.7-9.7V16c0-5.3-4.4-9.7-9.7-9.7ZM32.7,81.6h-13v-42.1h13v42.1ZM26.2,34c-4.3,0-7.7-3.5-7.7-7.8s3.5-7.8,7.7-7.8,7.7,3.5,7.7,7.8-3.5,7.8-7.7,7.8ZM81.6,81.6h-12.9v-22.1c0-6.1-2.3-9.4-7.1-9.4s-7.9,3.5-7.9,9.4v22.1h-12.5v-42.1h12.5v5.7s3.7-7,12.7-7,15.3,5.4,15.3,16.8v26.7h0Z"/>
</svg>