<?xml version="1.0" encoding="UTF-8"?>
<svg id="Layer_1" xmlns="http://www.w3.org/2000/svg" version="1.1" viewBox="0 0 100 100">
  <!-- Generator: Adobe Illustrator 29.5.1, SVG Export Plug-In . SVG Version: 2.1.0 Build 141)  -->
  <defs>
    <style>
      .st0 {
        fill: #3f2243;
      }
    </style>
  </defs>
  <g id="ovev23.tif">
    <path class="st0" d="M52,4.3v3.9h3.3v7.3h7v3.7h6.4v3.8s.2.2.2.2h3.7v3.9h3.1v3.7h3.8v4.5h-2.6v33.1h19.6v4.3h-19.6v22.9s-.2.2-.2.2h-11.9s-.2-.2-.2-.2c.2-1.8.3-4.4-.9-5.8s-1.5-1.1-1.6-1.1h-4.2v-4.3h-15.9v4.1s-.2.2-.2.2h-4.1c0,0-1,.6-1.1.7-.5.4-1.4,1.8-1.4,2.5v3.9h-12.2v-23.1H3.4v-4.3h19.7v-33.1h-2.6s-.2-.2-.2-.2v-4s.2-.2.2-.2h3.7v-3.7h3.2v-3.9h3.7v-4h6.5v-3.7h7.2v-7.3h3.2v-3.9h4ZM51.2,12.2h-2.3v3.3h2.3v-3.3ZM58.8,19.9h-17.3v3.7h-6.5v3.6s-.2.2-.2.2h-3.4v3.3h37.4v-3.3h-3.3s-.2-.2-.2-.2v-3.6h-6.3s-.2-.2-.2-.2v-3.5ZM73.2,35.3H26.9v28h2.9v-16.1h1.8c.2-2.2,1.5-4.3,3.2-5.3s1.4-.7,1.7-.7h2.5v-3.2s.2-.2.2-.2h22.5v3.4h2.1c1.5,0,3.6,2.1,4.3,3.6s.6,2.2.6,2.3c.2.2,1.9-.2,1.9.2v15.6s-.2.1-.1.2h2.8v-28ZM58,42h-15.2c0,.5.3,3.6,0,3.6h-4.5c-1,0-2.9,2.3-2.9,3.5v2.6h-2v11.6h33.8v-11.6h-2v-2.6c0-.5-.8-1.9-1.1-2.3-1.7-1.9-3.9-1-5.9-1.2v-3.6ZM73.4,67.6H26.9v3.9h46.5v-3.9ZM29.8,75.3h-2.9v15.9h4.2c0-2.2.9-4.4,2.4-5.8s2.8-1.3,4.7-1.2c-.2-2,.9-4,2.7-4.2,5.8-.6,12.4.5,18.3,0,1.8.3,2.9,2.1,2.7,4.2,3.7-.7,6.7,2.8,6.8,7h4.4c.1,0,.2-.4.2-.5.4-3.8-.1-9.1-.1-13s.4-2.5,0-2.5h-2.5v5s-.2.2-.2.2h-3.8c0-2.7-1.8-4.7-4-5.2-8.1.5-16.7-.7-24.7,0-2,.2-3.8,1.7-4.3,4s.1.9-.2,1.2h-3.7v-5.2Z"/>
  </g>
</svg>