<?xml version="1.0" encoding="UTF-8"?>
<svg id="Layer_1" xmlns="http://www.w3.org/2000/svg" version="1.1" viewBox="0 0 100 100">
  <!-- Generator: Adobe Illustrator 29.5.1, SVG Export Plug-In . SVG Version: 2.1.0 Build 141)  -->
  <defs>
    <style>
      .st0 {
        fill: #3f2243;
      }
    </style>
  </defs>
  <g id="Vcv85D.tif">
    <g>
      <path class="st0" d="M64.4,5v3.7h7.2v3.6h4.2c0,0,.2.2.2.3.2.9,0,2.4,0,3.3,0,0,.1.3.1.3h3.3v3.9h3.4v21.6h4v19.9h-3.7v4.1h-3.7v8.2h-3.4v6.8h-3.7v3.4h-3v3.8h-3.8v3.5h-3.9v3.7h-23.2s-.2-.2-.2-.2v-3.4s.1,0,.1-.2h-3.6v-3.3s-.2-.2-.2-.2h-3.2v-3.8h-3.5v-3.4h-3.6v-6.8h-3.7v-8.2h-3.8v-4.1h-3.5v-19.9h4v-21.6h3.2v-3.9h3.6v-3.7h3.8v-3.7h7.3v-3.7h29.2ZM67.7,20.1c0,0-.1.1-.2.1h-2.9s0-.1-.2-.1v3.6h-7.5v3.4h-21.7v-3.4h-7v3.7s.2.3,0,.3h-3.6v13.9h3.5v-3.6h18.2v3.6h7.8v-3.6h18.2v3.6h3.5v-13.9h-4.5v-4h-3.6v-3.6ZM45.3,42.3h-17.1v10.9h17.1v-10.9ZM71.9,53.1v-10.6s.2-.3,0-.3h-17.4v10.9h17.4ZM20.6,45.7h-3.4v15.6h3.4v-15.6ZM82.5,45.7h-3.2v15.6h3.2v-15.6ZM51.8,49.9h-3.5v3.5s-.2.2-.2.2h-2.5s-.3-.2-.3,0v3.6h-17.6c0-.1.1-.2.1-.3v-3.6h-3.5v18.8h3.6v6.9h3.6v4.3h3.7v3.8h4.1v3.6h20.9v-3.6h4.7v-3.8h3.2v-4.3h3.5l.2-6.9h3.7v-18.8h-3.6v3.9h-18.1v-3.8h-2.2v-3.6Z"/>
      <polygon class="st0" points="46.2 61.3 46.2 63.3 54 63.3 54 61.3 58.7 61.3 58.7 67.3 41.2 67.3 41.2 61.3 46.2 61.3"/>
      <rect class="st0" x="40" y="72.2" width="19.9" height="4"/>
      <rect class="st0" x="45.3" y="79.3" width="9.2" height="4"/>
      <path class="st0" d="M68,45.9c.3,1.3-.1,2.7,0,4h-10.4v-4h10.4Z"/>
      <rect class="st0" x="31.9" y="45.9" width="10.3" height="4"/>
    </g>
  </g>
</svg>