<?xml version="1.0" encoding="UTF-8"?>
<svg id="Layer_1" xmlns="http://www.w3.org/2000/svg" version="1.1" viewBox="0 0 100 100">
  <!-- Generator: Adobe Illustrator 29.5.1, SVG Export Plug-In . SVG Version: 2.1.0 Build 141)  -->
  <defs>
    <style>
      .st0 {
        fill: #3f2243;
      }
    </style>
  </defs>
  <g id="Wze0nG.tif">
    <path class="st0" d="M87.3,9.3v27.5h-6.3v-12.9c-1.3.2-2.6-.1-4,0v4h-4.2v4h-4.1v3.5h-4.1v4h4.1v4.1h4.1v27.4h-4.1v7.9h-4.1v4h-4v4h-8.2v3.8s-.2.2-.2.2h-19.4v-4h-8.2v-4h-4.1v-4h-4v-7.9h-4v-23.6h4v-7.9h4v-4h4.1v-4h8.2v-5.4h23.7v5.4h4v-3.5h4.1c-.2-1.3-.1-2.7,0-4h4.1v-4c.2,0,.4-.1.4-.1h3.8v-3.5h-14.6v-7h28.9ZM52.4,35.3h-15.4v3.9s-.2.2-.2.2h-8v4h-4.1v7.8h-4.1v15.6h4.1v7.9h4.1v4h8s.2.2.2.2v3.8h11.5v-4h8.2v-4h3.8v-7.9h4.1v-23.4h-4.1v-4h-8.2v-4.1Z"/>
  </g>
</svg>