<?xml version="1.0" encoding="UTF-8"?>
<svg id="Layer_1" xmlns="http://www.w3.org/2000/svg" version="1.1" viewBox="0 0 100 100">
  <!-- Generator: Adobe Illustrator 29.5.1, SVG Export Plug-In . SVG Version: 2.1.0 Build 141)  -->
  <defs>
    <style>
      .st0 {
        fill: #3f2243;
      }
    </style>
  </defs>
  <g id="ZMep90.tif">
    <path class="st0" d="M32.7,8.6v9.3h3.7v3.6h3.7v3.6h19.7v-3.6h3.7v-3.6h3.9v-9.3h6v9.4h-2.5v7.2h-3.5v3.6h-3.7v3.6h3.7v3.6h3.5v22.2h-3.5v3.6h-3.7v3.6h-7.5v3.6h-3.3v7.3h7v7.4h-7v7.6h-5.9v-7.6h-7.1v-7.4h7.1v-7.3h-3.3v-3.6h-7.5v-3.6h-3.7v-3.6h-3.6v-22.2h3.6v-3.6h3.9c0,0-.1-.1-.1-.2v-3.2s.2-.2.1-.3h-3.9v-3.5s.1,0,.1-.2h-3.7v-7.2h-2.3v-9.4h6.1ZM56.1,32.4h-12.2v3.8h-3.7v3.6h-3.7v14.8h3.7v3.8h3.7v3.6h12.2v-3.5s.2-.2.2-.2h3.6v-3.8h3.7v-14.8h-3.7v-3.6h-3.7v-3.8Z"/>
  </g>
</svg>