<?xml version="1.0" encoding="UTF-8"?>
<svg id="Layer_1" xmlns="http://www.w3.org/2000/svg" version="1.1" viewBox="0 0 100 100">
  <!-- Generator: Adobe Illustrator 29.5.1, SVG Export Plug-In . SVG Version: 2.1.0 Build 141)  -->
  <defs>
    <style>
      .st0 {
        fill: #3f2243;
      }
    </style>
  </defs>
  <path class="st0" d="M85.2,81.7l-6.8-6.7h-6.9l4-4,.3-.5c0-6.4.1-12.9-.1-19.3l-8.3-8.4c-.6-.4-4.7,0-5.9-.1-.3,0-.9-.4-.6-.7l5.1-5v-5.4h3.7v-11.5h-3.7c0-.2,0-.3,0-.5,0-1.2,0-2.4,0-3.6,0-.8,0-2,0-2.8,0-.1,0-.4-.2-.4h-3.3v-3.8h-3.8v-3.9h-18.1v3.9h-3.9c0,1.3-.1,2.6,0,3.8h-3.3s-.2.2-.2.2v7.1h-3.7v11.5h3.7v5c1.7,1.9,3.7,3.5,5.3,5.4,0,.2-.4.6-.6.6h-5.8c0,0-8.4,8.4-8.4,8.4v19.6s.2.3.2.3l3.8,3.7.2.3h-6.5l-6.8,6.9v.5c-.1,0,0,7.8,0,7.8,2.2,2.2,4.4,4.4,6.5,6.7h57.3c2.3-2.1,4.4-4.5,6.7-6.5v-8c0,0,0-.5,0-.5ZM62.3,46.8h3.8s5.4,5.4,5.4,5.4l.3.4v16.4s-.1.4-.1.4l-8,7.8h-14.4c.3-1.1,0-2.3,0-3.5h10.8l6.3-6.2v-11.5h-3.8v9.6c-.1,0-.2,0-.3.1-1.2,1.4-2.9,2.7-4.2,4.2-5.5.3-11,0-16.5.1-1.6-1.1-2.8-2.6-4.2-4,3.5-1.9,6.9-3.9,10.2-6.2,5.4-3.8,10.2-8.2,14.6-13.1ZM37.4,35.3v-4.9h-3.8v-7.2h3.8v-10.4h3.8v-3.8h17.2v3.8h3.9v10.4h3.7v7.2h-3.5s-.2.2-.2.2v4.7c-2.1,2.1-4.2,4.2-6.4,6.3h-11.7s-.5,0-.5,0l-6.3-6.2ZM27.9,69.1c-.3-.5,0-2.6,0-3.3,0-4.4-.2-8.8,0-13.2l5.8-5.8h8.1v-1.5h16.1c0,0,.4.1.3.3-5.6,6-12.2,11.2-19.3,15.3-.6.4-1.3.7-1.9,1v-5.8h-3.9v11.1l6.7,6.5h5.7v3.5h-9.4c-2.9-2.5-5.3-5.5-8.1-8.1ZM22.7,92.5l-4.1-4.1c-.1-.2-.1-4.3,0-4.8,0-.1,0-.2.1-.3l4.2-4.2h.2c0-.1,8.6-.1,8.6-.1.9.6,1.6,1.6,2.4,2.3h24.3l-3.4,2c-9.2,5.1-20.1,9.2-30.7,9.4-.5,0-1.2,0-1.7-.2ZM81.4,87.9c0,.2,0,.3-.1.5l-4.6,4.6h-33.8l6.9-2.7c6.4-2.9,12.6-6.3,17.8-11.2,3,.1,6.4-.3,9.3,0,.7,0,.5.3.8.5.6.5,3.5,3.2,3.7,3.7.2.5.1,4,0,4.7Z"/>
  <path class="st0" d="M53.3,31.2h-7v3.8h7.1v-3.6s-.2-.2-.2-.2Z"/>
  <path class="st0" d="M51.8,25.2h6.6v-4h-6.5c-.3,0,0,.3,0,.3v3.7Z"/>
  <polygon class="st0" points="47.1 29.6 49.2 29.6 49.2 21.2 47.6 21.2 47.1 21.2 41.8 21.2 41.8 25.2 47.1 25.2 47.1 29.6"/>
</svg>