<?xml version="1.0" encoding="UTF-8"?>
<svg id="Layer_1" xmlns="http://www.w3.org/2000/svg" version="1.1" viewBox="0 0 100 100">
  <!-- Generator: Adobe Illustrator 29.5.1, SVG Export Plug-In . SVG Version: 2.1.0 Build 141)  -->
  <defs>
    <style>
      .st0 {
        fill: #3f2243;
      }
    </style>
  </defs>
  <g id="A1q5RH.tif">
    <path class="st0" d="M65.1,9.3v2.8h6.5v6.1h-6.5v3.1h-5.9v3.1h-3.1v3h-3.1v6.3h-3.1v9.1h-3.1v14h3.1v9.1h3.1v6.1h3.1v3h3.1v3.1h5.9v3.1h6.5v6.1h-6.5v3h-18.5v-2.9h-6.3v-3.2h-6.3v-2.9h-3v-3.1h-3.2v-3h-2.9s0,.1-.2.1v-6.2h-3.1v-6.1h-2.9s0,.1-.2.1v-26.4h3v-6.2h3.1v-6.2h3v-3.1h3v-3.1h3.2v-2.9h6.1v-3.1h6.5v-2.8h18.5ZM56.1,15.2h-6.3v3.1h-6.4v3h-6.3v3.1h-3.1v3h-3v6.3h-3v6.2h-3v20c-.1,0,2.9,0,2.9,0v6.1h3.1v6h3v3.1h3.1v3.1h6.3v3.1h6.4v3h6.3v-3h-3.1s-.2-.1-.2-.2v-3h-3.1v-6.2h-3.1v-2.9h-3v-9.1h-3s-.2-.1-.2-.2v-20.1h3.1v-9.2h3.1v-6.2h3v-3.2h3.1v-3h3.2v-3Z"/>
  </g>
</svg>