<?xml version="1.0" encoding="UTF-8"?>
<svg id="Layer_1" xmlns="http://www.w3.org/2000/svg" version="1.1" viewBox="0 0 100 100">
  <!-- Generator: Adobe Illustrator 29.5.1, SVG Export Plug-In . SVG Version: 2.1.0 Build 141)  -->
  <defs>
    <style>
      .st0 {
        fill: #341639;
      }
    </style>
  </defs>
  <g id="tFggXh.tif">
    <path class="st0" d="M21.3,1.5v11.1h3.2v-7.7h4.3v15.4h4v-7.6h4.2v11.1h4v5.2h3.8v3.5h10.5v-3.5h3.6v-5.2h3.6v-11.1h4.4v7.6h4V4.9h4v7.7h3.4V1.5h4.4v14.7h-3.7v4.2h-4v3.8h-7.7v3.6h-4.4v6.3s.2.2.2.2h2.9v-3.2h3v-2.9h13.5v9h-2.5v4c-1.1,0-2.2.3-3.2,0v3.1h-5.1v2.4h-2.7v14h-2.3v17.7h2.4v13.8c.1,0-4,0-4,0v3.4h-3.9v2.9h-22.4v-2.9h-4v-3.2s-.2-.2-.2-.2h-3.9v-13.8h2.4v-17.7h-2.4v-14h-2.4v-2.4h-5.4v-3.1c-1,.2-2,0-3,0v-4h-2.5v-9h13.6v2.9h2.9v3.2h3v-6.5h-3.9v-3.6h-8.2c.2-1.3-.3-2.6,0-3.8h-3.6v-4.2h-3.8V1.5h4ZM28.7,32.3h-7.4v3.1h2.8v3.5h4.6v2.3h3.9v-4.7h-3.9v-4.2ZM78.4,32.3h-7.2v4.2h-3.9v4.7h4v-2.3h4.3v-3.4h2.8v-3.2ZM59,36.7c0,0-.1.1-.2.1h-17.6s-.2-.2-.3-.1v2s.2.3,0,.3h-3.8v2.1s-.2.2-.2.2h-2.1v5.6h6.1v3.6h3.7v7.7h-3.9v-3.5h-3.2v-4h-2.7v7.5h2.6c.4,0,0,2.2,0,2.5s.1.5.1.8c0,1.4,0,2.9,0,4.3h3.6v5.9h6.5v-4.4h-3.4v-4.4h11v4.3c0,.3-.7,0-.9,0-.8,0-1.5.2-2.2,0v4.4h6.6v-5.9h3.8v-7.5s.2-.2.2-.2h2.3v-7.5h-2.5v4h-3.5v3.5h-3.6v-7.7h3.2v-3.6h6.4v-5.4h-2.3v-2.4h-3.7v-2.3ZM38.3,70h-.7v12.2c-.2.1-.7.2-1,.2-.5,0-1.1,0-1.6-.1,0,0-.2.1-.2.2v6.3h3.7v2.7h4.6v2.8h13.8v-2.8h4.5v-2.7h3.7v-6.4h-2.5v-12.4h-1v5.4h-2.1v3.8h-2.5v3h-14v-2.8h-2.2v-4h-2.4v-5.4ZM55.1,75.4h-10.2v2.5h10.2v-2.5Z"/>
  </g>
</svg>