<?xml version="1.0" encoding="UTF-8"?>
<svg id="Layer_1" xmlns="http://www.w3.org/2000/svg" version="1.1" viewBox="0 0 100 100">
  <!-- Generator: Adobe Illustrator 29.5.1, SVG Export Plug-In . SVG Version: 2.1.0 Build 141)  -->
  <defs>
    <style>
      .st0 {
        fill: #3f2243;
      }
    </style>
  </defs>
  <g id="wbzC6M.tif">
    <path class="st0" d="M88.3,68.2h-4.5v-8.5h-2.7v-4.2h-4.1c-.3,0,0,.3,0,.3v8.2h-4.6s-.1.2-.2.1v-8.6h-4.5v-4.2h-12.4v12.5h5.1c.3,0,0,.3,0,.3v3.9h4.6v4.6s.2.2.2.2h4.1v3.4h3.2v8.6h-4.2v-8.4h-3.9v-3.7h-3.9s-.1-.2-.2-.1v6.2c0,.3.3,0,.4,0h2v8.8l-2.7,2.3v5.8h-4.9v-6l3.1-2.7v-8.3h-2.7v-10h-3.5v-4.8h-3.8v4.1c-.1,0-.2-.1-.2-.1h-3v7.6c1.1,1,2.2,2,3.4,3s.4.2.4.2v6h-4.4v-4.7c-.4-.6-4.5-3.7-4.5-3.9v-3.4h-4.4v9.8c-.6.8-2.4,1.8-2.9,2.5s0,2.3,0,3.1h-4.9v-3.7c0-.2,3.2-2.5,3.3-3.1.2-2.8,0-5.5,0-8.3s0-.3.2-.3h4.3v-4.3h4.5v-4.4h4.4v-4.4h4.1v-12.8h-6.2v4.4h-12.9v4.2h-4.2v4.2h-5.1v4.3h-3.9v7.6h-4.5v-11.9h4.8v-4.3h4.1v-4s.2-.2.2-.2h4.1v-4.3h11.5v-3.7h4.9v-4.3h4.9V4h8.9v39.3h5.2v3.7h13.4v4.3h7.9v4.2h5.1v3.6c0,.4,1.4,0,1.7.2v9Z"/>
  </g>
</svg>