<?xml version="1.0" encoding="UTF-8"?>
<svg id="Layer_1" xmlns="http://www.w3.org/2000/svg" version="1.1" viewBox="0 0 100 100">
  <!-- Generator: Adobe Illustrator 29.5.1, SVG Export Plug-In . SVG Version: 2.1.0 Build 141)  -->
  <defs>
    <style>
      .st0 {
        fill: #3f2243;
      }
    </style>
  </defs>
  <g id="_x36_vUMkI.tif">
    <g>
      <path class="st0" d="M76.1,12.2v4.4h8.6v4.6h3.3v2.1h3.7v4.2h3.6v4.7h2.8v26.3h-2.6v4.8c0,.4-3.6,4.7-3.6,5v5.1h-3.9v4.2c-.1,0-.2.2-.3.2h-3.5v5h-7.9v4.9H23.4v-4.9h-7.7v-5h-3.5c-.3,0,0-.4,0-.4v-4h-4v-5.1c0-.4-3.7-4.8-3.7-5.2v-4.6H1.9v-26.3h2.5v-4.7h3.6v-4.2h3.7v-2.1h3.1v-4.6h8.6v-4.4c-.1,0,52.8,0,52.8,0ZM72.7,19H27.4v4.1h-8.4v3.7h-3.4c.2.3.2,2.3,0,2.3h-3v3.4h-3.1v5.2h-3.1v9.1h2.6v-5h3.2c-.2-1.6.1-3.3-.1-5h4.4v-5h6.9v-5.4h53.4v5.1c0,0,.2.3.3.3h5.9s0,5,0,5h4.9v5h3.4v5h2.5v-9.1h-3v-5.2h-3v-3.4h-3.3v-2.3h-3.3v-3.7h-8.2s-.3.3-.3,0v-4ZM33.5,32h-6.4v4.7h6.4v-4.7ZM42.2,32h-4.6v4.7h4.6v-4.7ZM53,32h-6.9v4.7h6.9v-4.7ZM63.6,32h-6.6v4.7h6.6v-4.7ZM72.7,32h-5.1v4.7h5.1v-4.7ZM78.9,42.4v-4.8c0-.4-.3,0-.3,0h-5.5v4.1h3.2v5.2h6.3v5.7h-16.7v4.6c0,.4-.3,0-.3,0h-3.7v-4.7h-7.2v4.7h-4.1v-4.7h-6.7v4.7h-4v-4.7h-6.7v4.7h-4v-4.7h-12.3v-5.7h9.7v-4.4h-3c-.3,0,0-.8,0-1.1,0-1.3,0-2.6,0-3.8h-3.2v4.9h-4.6v4.7h-6c.4,1.3,0,3.1,0,4.4s0,.3.1.3h5.1v4.6h10.6v5h48.7v-5h10.8v-4.6h5.5v-4.7h-6.3v-4.7h-5.4ZM36.7,42.4h-6.1v4.4h6.1v-4.4ZM47.3,42.4h-6.8v4.4h6.8v-4.4ZM57.6,42.4h-6.4v4.4h6.4v-4.4ZM69.3,42.4h-7.6v4.4h7.6v-4.4ZM11.3,57.2h-5.1v1.3h3.1v5h3v4.6h3.6c0,1.5-.2,2.9,0,4.4h3.4v5h7.7v4.2h8.4v-4.6l-12.6-.2v-5.4h9.2v-4.7h-9.8c-.1-1.5,0-3,0-4.6h-10.9v-5.2ZM93.8,57.2h-4.8v5.2h-11.4v4.6h-22.6v4.7h8.6v5.5h-10v4.6h19.1v-4.2h7.7v-5h3.7v-4.4h3.7c.1-1.5-.3-3.1,0-4.6h3.1v-5h3v-1.3ZM51.3,67h-15.3v4.7h15.1c.4,0,0-4.2.2-4.7ZM49.6,77.2h-10.3v4.6h10.3v-4.6Z"/>
      <path class="st0" d="M77.3,71.7v5.4l-9.7.2c-.1,0-.4-.1-.4-.3v-5.3h10.1Z"/>
    </g>
  </g>
</svg>