<?xml version="1.0" encoding="UTF-8"?>
<svg id="Layer_1" xmlns="http://www.w3.org/2000/svg" version="1.1" viewBox="0 0 100 100">
  <!-- Generator: Adobe Illustrator 29.5.1, SVG Export Plug-In . SVG Version: 2.1.0 Build 141)  -->
  <defs>
    <style>
      .st0 {
        fill: #341639;
      }
    </style>
  </defs>
  <g id="FNEkUM.tif">
    <path class="st0" d="M52.2,9.1v4.3h3.4c.3,0,.2,2.9.2,3.4s-.3,1.5,0,1.5h3.4v6.6h3.5v9.2h2.8v-4.2s.2-.3.2-.3h3v-4.2c0,0,.2-.3.4-.3.5,0,3.7.5,3.7,0v-3.7h7.5v20.8h9.7v-3.6h7.2v8.5h-3.4v8.5h-3.2v5.6c0,.4-.7,0-.9,0-1,0-1.9,0-2.9,0v5h-3.5v4.2h-3.7l.2,3.6c0,.2-.1.6-.2.6h-3.4v2.8h8.4s.2.2.2.3v3.6h4.7v9.6s-.2.3-.2.3h-31.6s-.2-.2-.2-.3v-3.9h-6v-5.7h-3.1v5.5s-.2.3-.2.3h-5.9v4.2H10.4s-.2-.2-.2-.3v-9.4s.2-.3.2-.3h4.9v-3.8h8.4v-2.8h-3.4s-.2-.2-.2-.3v-3.9h-3.5v-4.2h-3.4v-4.7h-3.7v-6.1h-3.7v-8.5h-3.2v-8.5h7v3.5h9.6s.1.2.2.2v-20.8h7.5v3.7s.2.3.2.3h4.3v4.3h3s.2.2.2.3v4.2h2.8v-8.4c0,0-.2-.1,0-.4.4-.5,2.7.2,3.4,0v-6.9h3.5v-4.6s.2-.3.2-.3h3.3v-4.1s.2-.3.2-.3h4ZM51.6,18.6h-3.2v3.7c0,0,.2.1.1.3h-3.4v7s-.2.3-.2.3h-3.1s-.1-.2-.2-.2v21.3h3.4v8.7h3.2s.2.2.4.2v6.2h3.1v-6.2s.2-.3.2-.3h3.4v-8.7h3.4v-21.3c-.2-.1-.4.2-.5.2h-2.8s-.2-.2-.2-.3v-7h-3.5v-4ZM27.1,29.9h-3.2v9.5h3.2v11.6h3.2v6.8h3.5v4.3c.2,0,.4.2.5.2h3v3.8h3s.2.2.2.3v3.6h3.7v-6.4h-3.3s-.2-.2-.2-.3v-7.9h-3s-.2-.2-.2-.3v-8.2h-3.3s-.2-.2-.2-.3v-7.1c0,0,.2-.1.1-.3h-3.5v-4.7h-3.5v-4.7ZM76.3,29.9h-3.2v4.7h-3.7v4.7h-3.5v7.6h-2.9v8.5h-3.5v7.9s-.2.3-.2.3h-3.3v6.4h3.7v-3.8h3.1v-3.8h3.3s.2-.2.2-.3v-4.2h3.5v-6.8h3.4v-11.6h3.2v-9.5ZM22.7,46.9h-12v4h3s.2.2.2.3v5.5h3.2v4.5h3.5v4.5h3.7v4.3h8.4v-3.8h-3.4v-3.5h-3.2s-.2-.2-.2-.3v-7h-3.2v-8.5ZM89.8,46.9h-12.8v8.5h-3.1v7.3h-3.5v3.5h-3.2v3.8h8.5v-4.3h3.7v-4.5h3.5v-4.5h3.4v-5.5h3.5v-4.2ZM44.7,77.4h-15.7v4.2s-.2.3-.2.3h-9.5v3.8h18.9v-4.7h6.5v-3.6ZM71.6,77.4h-15.7v3.6h5.9v4.7h19.1v-3.8h-9.2v-4.5Z"/>
  </g>
</svg>