<?xml version="1.0" encoding="UTF-8"?>
<svg id="Layer_1" xmlns="http://www.w3.org/2000/svg" version="1.1" viewBox="0 0 100 100">
  <!-- Generator: Adobe Illustrator 29.5.1, SVG Export Plug-In . SVG Version: 2.1.0 Build 141)  -->
  <defs>
    <style>
      .st0 {
        fill: #3f2243;
      }
    </style>
  </defs>
  <g id="rLkrMi.tif">
    <path class="st0" d="M67,90.6v-2.7h-3c0-.9,0-1.8.1-2.7h-2.9v-19.8h2.7c.3,0,0-.6,0-.7,0-.7,0-1.4,0-2.1h3v-2.7h2.7v-2.9h5.3v-5.6h2.9c0-.1-.1-.3-.1-.3v-16.5h-2.7v-5.6h-2.7v-2.9h-2.9v-2.7h-2.9v-2.9h-5.5v-2.6h-22v2.6h-5.6v2.9h-2.7v2.7h-2.9v2.9h-2.7v5.6h-2.9v16.8h2.9v5.6h5.7v2.9h3v2.7h2.9v2.9h2.7v19.8h-2.7v2.7h-2.9v2.7c.1,0-17.2,0-17.2,0v-2.7h-3.1v-2.7c.1,0-2.7,0-2.7,0,0-.4.2-2.9-.2-2.9h-2.6v-14.2h2.7v-2.7h2.9v-2.9c-.1,0,5.8,0,5.8,0v-2.7h-2.9v-5.7h-3v-22.5h3v-5.6h2.9v-5.5h2.9v-2.7h2.9v-2.9h5.4v-2.7h5.6v-2.9h28c.3,0,0,.3,0,.3v2.6h5.6v2.7h5.3v2.9h3v2.7h2.9v5.5h2.7v5.4s.2.2.2.2h2.9v22.3s-.2.2-.2.2h-2.9v5.4s.2.3,0,.3h-2.7v2.7h5.8v2.9h2.7v2.7h2.7v14.2h-2.7v2.9h-2.7v2.7h-3v2.7h-16.7ZM69.8,82.3h10.7v-2.9h3c0,0-.1-.1-.1-.2v-8.2h-2.9v-2.7h-10.7v2.7h-2.9v8.3h2.9v2.9ZM19.3,82.3h11.2v-2.9h2.9v-8.3h-2.9v-2.7h-11.2v2.7h-2.9v8.3h2.8c.3,0,0,.3,0,.3v2.6Z"/>
  </g>
</svg>