<?xml version="1.0" encoding="UTF-8"?>
<svg id="Layer_1" xmlns="http://www.w3.org/2000/svg" version="1.1" viewBox="0 0 100 100">
  <!-- Generator: Adobe Illustrator 29.5.1, SVG Export Plug-In . SVG Version: 2.1.0 Build 141)  -->
  <defs>
    <style>
      .st0 {
        fill: #3f2243;
      }
    </style>
  </defs>
  <g id="dbUSqr.tif">
    <path class="st0" d="M51.7,5.1v4.5h4v6.1h4.7v10.8s.2.2.2.2h4.4v16.2h2.8v-4h4.4v-5.7h4.2v-5.8h4.7v17.2h-4.4v12.7h4.4s.2-.2.2-.2v-4.4h4.5v-4.2h4.3v-9.2h4.3v-5.9h4.7v35.6h-4.5v10.4h-4.3v5.3c0,0-.1.1-.2.1-1.5,0-2.9-.1-4.4,0v5.2h-5.6v4.9H20.7v-5.2h-6.9v-4.4h-3.8v-5.5h-4.8v-6.2H1.2v-17.7h4.1v-11.5H1.2v-10.9h4.8v5.4h4.8v5.2h4.4v7.6h4v7.1c-.1,0,2.7,0,2.7,0v-14.7h3.3v-16.6h4.8v6.1h4.2v5.9h4v-6.5c0-.1.3-.2.4-.2.6,0,1.7,0,2.3,0s1.8.3,1.8,0v-10.3h4.2V5.1h5ZM53.9,53.3v-19l-6.8,7.4v6.8h-5v10.9h-3.7c-.2,0-1.9-2-2.3-2.3v-4.7h-4.1v10.8s.2.2.2.2h3.2v14.7h-5.9l-4.6-4.6v-4.2h-4.8s0-.2-.2-.4c-1.2-1.2-2.4-2.3-3.6-3.4s-1.9-1.8-2.1-2.2,0-1-.1-1.5h-3.6v6.3c1.3,1.4,2.8,2.6,4,4.1,0,.2-.1,1.3.2,1.3h4.1v6.4h4.9v4.7h7.3v4s.2.2.2.2h10.4v-6.3h-3c-.4,0,0-1.5,0-1.7,0-1.5,0-2.9,0-4.4s.1-1.1,0-1.6h3.9s.2-.2.2-.2v-8.2h4.1v-10.6h4.8v5.6h4.1v8h4.7v13.7h-3.8v5.6h11.9v-4.2h7.8v-5.5h4.5s.3.2.3,0v-6h3.7s.2-.2.2-.2v-9.4l-1.1.9c-.7.4-4.3,4.7-4.7,4.7h-3.9v3.9c0,.3-.5.7-.6.9l-4.2,4h-5.4v-12c.2,0,.5-.3.6-.5,1-.9,1.9-1.9,2.9-2.9v-10.2h-1.3v1.8l-6.3,5.9h-2.6v-6.9h-4.3Z"/>
  </g>
</svg>