<?xml version="1.0" encoding="UTF-8"?>
<svg id="Layer_1" xmlns="http://www.w3.org/2000/svg" version="1.1" viewBox="0 0 100 100">
  <!-- Generator: Adobe Illustrator 29.5.1, SVG Export Plug-In . SVG Version: 2.1.0 Build 141)  -->
  <defs>
    <style>
      .st0 {
        fill: #3f2243;
      }
    </style>
  </defs>
  <g id="c7upaj.tif">
    <path class="st0" d="M51.4,1.8v5.5s.2.2.2.2h3.1v3h3v9.2h-3v3.2h7v-6.1c-.1,0,2.6,0,2.6,0v-3.1h3.2v-3.2h3v-5.6h3.4v8.9h-3v3.1h2.8s.2.2.2.2v8.7h2.6s.2-.2.2-.2v-6h3v-5.9h6v5.9h2.5v12.2h-2.5v3.1h-3s-.2.2-.2.2v4.5s.2.2.2.2h10.8v9.8h-3v8.4h-2.5v8.1h2.7v11h-2.7v2.7h-5.8v-2.7h-2.3v3.7h-2.8v5.8h-3.2v2.8h-2.7s0-.1-.2-.1v3.1h-5.5v2.8h-5.6c.2,1.1,0,2.1,0,3.2h-20.4v-3.2h-5.3v-2.8h-5.2v-3h-3.3v-2.8h-2.8v-5.8h-2.8v-3.7h-2.5v2.7h-5.9v-2.7h-2.6v-11h2.6v-8.1h-2.6v-8.4h-2.5v-9.8h10.5s.2-.2.2-.2v-4.5s-.2-.2-.2-.2h-2.9v-3.1h-2.7v-12.2h2.7v-5.9h6.2v5.9h2.8v6.1h2.7v-8.9h3.1v-3.1h-3.1V4.8h3.2s.2.2.2.2v5.4h3v3.2h3.1v3.1h3v6.1h6v-3.2h-2.5v-9.2h3.2v-3h3.1V1.8h3.3ZM51.2,10.1h-2.8c0,0,.1.1.1.2v3.5h-3v5.8h3v3.3h2.6c.1,0,.2-.4.2-.5v-2.8h3.1v-5.8h-3.1v-3.6ZM33.4,16.9h-1.2v2.7h-2.8v6h6.1v-6h-2v-2.7ZM67.9,16.9h-1v2.3c0,0,.2.2.1.4h-2.2v6h5.7v-6h-2.6v-2.7ZM18.3,19.6h-1v3.3h-2.5v5.8h2.6c.2,1,.2,2.1,0,3.1h5.2v-3.1h-2.6s-.2-.2-.2-.2v-5.6h-1.6v-3.3ZM83.1,19.6h-.9s.1,3.3.1,3.3h-2.5v5.8h-2.7v3.1h5.1v-3.1h2.8v-5.8h-1.9v-3.3ZM29.2,25.9h-3v2.8h3v-2.8ZM73.7,25.9h-2.8c.2.9,0,1.9.1,2.8h2.6s.2-.2.2-.2v-2.7ZM48.1,28.7h-12.9v3h-9v3.1h-2.7v5.6s-.2.2-.2.2h-3v5.8h3v2.8h5.6v-5.7h-2.8v-6h3.2s.1.1.2.2v2.7c0,0,5.2,0,5.2,0,.4,0,0,2.7,0,3.1h2.3v-2.9s.2-.2.2-.2h2.8v3.1h2.5v-8.6h2.7v-3h2.9s.2-.2.2-.2v-2.9ZM64.6,28.7h-13.2v3.1h3v3h2.7v8.6h2.8v-3.1c1,.2,2,0,3.1,0v3.1h2.5v-3.1h5c0,.1,0-2.8,0-2.8h3.4v6h-3v5.7h5.6v-2.4c0,0,0-.4.2-.4h2.9v-5.8h-3v-5.8h-3v-3.1h-9.2v-2.7s.2-.2.1-.3ZM51.1,34.7h-2.6v2.9c0,.3-.9,0-1.1,0-.6,0-1.3,0-1.9,0v2.6h3v3.1h2.7c0-.5-.1-2.7,0-3s2.2,0,2.7,0c-.2-.7-.1-1.4-.1-2.1s.2-.6,0-.6-.2.1-.3,0c-.8,0-1.5-.2-2.3-.1v-3ZM17.5,46.4h-2.7s-.2-.2-.2-.2v-2.7c0-.3-.3,0-.3,0h-4.6v2.8h2.5v5.5h2.5v8.5h2.7v-5.6h2.6v-2.6h-2.6v-5.7ZM90.2,43.4h-4.9v3.1h-2.8v5.7h-2.6v3c.8-.2,1.6.1,2.5,0v5.2h2.7v-8.5h2.4v-5.5h2.7v-3ZM45.1,43.5h-2.3v2.8h2.3v-2.8ZM56.9,43.5h-2.5v2.8h2.5v-2.8ZM39.6,46.4h-7.6s0-.1-.2-.1v3.1h-2.8c0,0,.1.1.1.2v5.2c.7,0,1.4,0,2.1,0s.7-.2.7,0v2.7c0,.3,1.8.2,2.1.2.8,0,1.8-.1,2.6-.1s1.8.2,2.5.1.4,0,.4-.2v-2.6h-5.3s-.2-.2-.2-.2v-5.5s.2-.2.2-.2h5.3v-2.7ZM53.9,46.4h-8.4v2.7h8.4v-2.7ZM67.9,46.4h-7.7v2.7h5.1v5.8h-5.1v2.6c0,.2.5.2.6.2h6.9s.2-.2.2-.2v-2.8h3v-5.3h-3v-3ZM42.3,49.4h-2.5v5.3h2.5v-5.3ZM59.9,49.4h-2.8v5.3h2.8v-5.3ZM26,52.1h-2.7v25.3h2.7v5.9h3.1v2.8h3.1v2.8h5.1v3h5.1v-3h2.7v-2.6h-8.4v-2.8h-2.5v-3h-2.8v-5.9h-2.5v-2.6c0,0,.2-.2.1-.4h-3v-8.6h3.4v6h4.8v-3.1c0,0,.1-.1.2-.1.8,0,1.7.1,2.5,0v-2.8h2.7v-2.4h-8v-3h-2.8v-2.8h-2.8v-2.8ZM53.9,52.1h-8.2v5.7h-3.1v5.1h3.1v2.8h8.2c0,0-.1-.1-.1-.2v-2.5s.2-.2.2-.2h2.9v-5.1h-3v-5.7ZM76.6,52.1h-2.7v2.8h-2.8v2.8h-3v3h-8v2.2h2.6v3.1c.9.1,1.9-.1,2.8,0s.4,0,.4.1v3.1h4.9v-6h3.1v8.6h-2.8v2.8h-2.8v6h-2.6v3h-2.5v2.8h-8.6v2.6h2.8v3h5.3v-3h5.2v-2.8h2.6v-2.8h3.2v-5.9h3v-25.3ZM20.1,63.2h-5.3v2.7h5.3v-2.7ZM85,63.2h-5.2v2.6s.2.2.2.2h5.1v-2.7ZM42.3,66.1h-2.5v3.1h-2.7v8.1s.2.2.2.2h2.3v-5.7h20.6v5.7h2.5v-8.4h-2.7c0,.1,0-3,0-3h-2.8v3.1h-14.8v-3.1ZM14.7,69h-2.4v5.5h5.1v-3.1h-2.7v-2.4ZM87.5,69h-2.3v2.4h-2.7c0,0-.2.3-.2.4v2.7h5.1v-5.5ZM48.1,74.6h-3.2v2.7h-2.4v3.3h2.5v-3h3.1v-3.1ZM54.6,74.6h-3.2v3.1h3.1v3h2.3c.3,0,0-.8,0-1s.3-2.2,0-2.2h-2.2v-2.8ZM42.3,80.6h-2.4v2.7h2.4v-2.7ZM60.1,80.6h-2.7v2.7h2.7v-2.7ZM54,83.6h-8.3c.2.9.2,1.8,0,2.6h8.3v-2.6ZM54,89.2h-8.2v3h-3.1v2.6h14.1v-2.6h-2.8c-.3,0,0-.3,0-.3v-2.7Z"/>
  </g>
</svg>