<?xml version="1.0" encoding="UTF-8"?>
<svg id="Layer_1" xmlns="http://www.w3.org/2000/svg" version="1.1" viewBox="0 0 100 100">
  <!-- Generator: Adobe Illustrator 29.5.1, SVG Export Plug-In . SVG Version: 2.1.0 Build 141)  -->
  <defs>
    <style>
      .st0 {
        fill: #3f2243;
      }
    </style>
  </defs>
  <g id="_x34_h2i6y.tif">
    <g>
      <path class="st0" d="M51.8,4v4.6h-3.4v2.8h9.9v2.9h6c.2,0,0,.3,0,.3v3h3.1v3.1h3.1v3.2h6.6v-3h3.1v-3.3h3.2v-3.3h6.1v6.6h-3.1v3.1h-3v3.2h-3v6h3.1v3.3h3.1v9.6h-3.2v-3h-3.2v-3.4h-3.2v-2.8c-.5.3-1,0-1.5,0s-.5.1-.8.1c-.4,0-.8-.2-1.2,0v-3.3h-15.3v2.8h3.1v3.2h-9.6c.1.9.2,2,0,2.9h3.1v3.5h-16.1v3h-21.9v-3h-3.1c-.1,0-.2-.3-.2-.4,0-.8.3-1.8.1-2.6h-3.1v-8.7h3v-4.1h3.2v-6.4h2.9v-3h3.1v-3.3h3.3v-3.3h6.1v-2.9h6.6v-3.9h3.2v-3.5h9.9ZM54.6,14.9h-19v3.1h-6.4v2.9h-3.1v3.1h-3.1v3.2h-3.1v6.5h-3.1v3.3h-3.1v2.6h6.2v3.4h-3.1v2.8h12.1v-3.1s.2-.2.2-.2h2.9v-2.9c0,0,0-.2,0-.2h2.9v-12.2h-3.1v-3.3h3.4v3.1h3.3v12.7h-3.1v2.9h6.2v-3.1h6.3v-2.8s.2-.2.2-.2h3.4v-2.9s.2-.2.2-.2h3v-3.1h15.9v-3.1h-3.5v-3.2h-3.2v-3.1h-3.1v-2.9h-6.3v-3.1Z"/>
      <path class="st0" d="M73.6,42.5v3.1h3.5v3.2h3.3v2.9h3.1v3.2h3.1v9.8h-3.1v5.8h-3.1v3.2h-3.1v3.2h-3v3.1h-3.2v3.3h-8.9v3.2h-4v3.3h-3.4v3.3h-3.1v2.9h-6.8v-6.2c0-.2.3,0,.3,0h2.9v-3.2h-6.3v-3.2h-6.5v-3.3h-3.2v-3.1h-3.1v-3.2h-6v2.9c.1,0,0,.3,0,.3h-3v3.1h-3.1v3.3h-3.1v3.2h-3.3v-9.7h3v-3.1h3s0,.1.2.1v-3.1s.2-.2.2-.2h2.9v-2.8h-2.9s-.2-.2-.2-.2v-6.1h-3.2v-9.8h3.4v3.2h3.1v3.3h3.1v3.1h3.1v3.2h12.5v-3h-3.5v-3.3h9.8v-3.3h9.6v-2.9h3.3v-2.9h3.2v-3.3h3.3v-3.3h9.3ZM73.5,49h-9.2v3.2h-3.1v3c-.5.3-1,0-1.5,0s-.5,0-.7,0-.9-.2-.9,0v3h-3.3v3.1h-6.5v2.9s.2.3,0,.3h-3v3.1h-16v2.8h3.2v3.1h3.2c.1,1.1,0,2.1,0,3.2h3.1v3.2h6.5v3.1h12.6v-3.1h9.9v-3.2h3.3v-3.1c0,0,.1.1.2.1h2.7v-3.3h3.2v-3.3h3.1v-6h3.1v-2.9h-3.1v-3.2h-3c-.2,0,0-.3,0-.3v-2.7h-3.6v-3.2Z"/>
      <rect class="st0" x="22.9" y="30.3" width="4" height="4.3"/>
      <path class="st0" d="M64.3,70.5c-1.1,0-2.1,0-3.2,0v-12.4h3.2c0,4.1,0,8.2,0,12.4,1.1,0,2.2,0,3.3,0v3.2h-3.3c0-1.1,0-2.1,0-3.2Z"/>
      <rect class="st0" x="72.3" y="54.9" width="3.7" height="5.2"/>
    </g>
  </g>
</svg>