<?xml version="1.0" encoding="UTF-8"?>
<svg id="Layer_1" xmlns="http://www.w3.org/2000/svg" version="1.1" viewBox="0 0 100 100">
  <!-- Generator: Adobe Illustrator 29.5.1, SVG Export Plug-In . SVG Version: 2.1.0 Build 141)  -->
  <defs>
    <style>
      .st0 {
        fill: #341639;
      }
    </style>
  </defs>
  <g id="_x39_RKoLK.tif">
    <path class="st0" d="M21.7,12.5v4.2h3.4v8.5h3.6v5.5h3.9v3.9h27.6v16.1h5v-4.6h3.6v-8.1h3.2v-7.2h3.4v-4.4h3.4v-3.9h3.7c-.2-1.3-.2-2.6,0-3.9h14.4v6.1h-3.7c.1-.7-.2-1.3,0-2h-6.7v3.7h-3.4v4.2h-3.2v4.6h-3.4v7.7h-3.4v7.6h-3.5c0,0,.1.1.1.2v3.9c0,.1-.9,2-1.1,2.3-2.3,4.2-6.6,7.6-11.1,9.2s-3.1.8-3.1.9v10s-.2.2-.2.2h-2.1s0-.2-.2-.1v3.6h-3.7v3.5h-4.1c0,.3.1.6.1.9s0,2.4-.2,2.4h-23.3v-3.4h-3.9v-3.5h-3.9v-3.5c-.7,0-1.3,0-1.9,0s-.7.2-.7,0v-19.1c0-.1-1.2-1.6-1.4-2-.9-1.6-1.4-3.5-1.8-5.3-2.1-9.5-1.1-19.4-1.3-29-.1,0-.3.1-.3.1h-2.7v-9.3h18.7ZM17.6,16.7H7.4v3.4h3.2c.2,6.4-.2,12.9,0,19.4s.7,11.5,2.4,13.7,1,.9,1.7,1v-4h3.7v-3.5h3.6v-3h21.2v3h4v3.5h3.2c.1,0,.2.3.2.4.1,1.1-.2,2.3,0,3.4h3.1v7.9c0,0,.2.1.3.1.4,0,1.5-.3,2-.4,3.3-.9,6.8-3.4,8.2-6.6h-8.3v-16.2h-27.6v-3.9h-3.7v-5.7h-3.6v-8.3h-3.2v-4.2ZM30.6,48.9h-3.9v2.7h-3.4s-.2-.2-.3-.1v2.1c0,.4,5.2,5.1,5.8,5.9.4.7,1.8.1,1.8-.3v-10.3ZM39,48.9h-4.2v10.4c0,.5,1,.6,1.3.3l6.3-6.3v-1.8c-1.1.4-2.3-.2-3.4.1v-2.7ZM46.4,58.5v-3.4l-7,6.9c-.4.5-.1,1.2-.2,1.9h10.3v-5.4h-3.1ZM19.1,55.8v2.7c0,0-.2.2-.3.2-.5,0-1.7,0-2.2,0s-.7-.2-.7,0v5.2h10.6v-.8c-1.7-2.1-3.8-3.8-5.7-5.7s-1.4-1.8-1.6-1.6ZM34.8,63.9h-4v4.1h4v-4.1ZM26.5,68.2h-10.6v5.2h3.2v3.1l7.1-7c.3-.4.2-.8.2-1.3ZM46.6,73.5h2.8c.1,0,.2-.3.2-.4.1-1,0-2.8,0-3.9s0-.7-.2-.9h-10.3c0,.5,0,.9.2,1.3,2.3,1.9,4.5,5.1,6.8,6.8s.2.2.4.2v-3.1ZM43.8,80.6c0-.4,0-.9-.2-1.2l-7.2-7.2-1.6-.2v10.7h5v-2.1h4ZM30.7,72.1c-1.4-.3-1.9.9-2.7,1.7-1.6,1.7-3.3,3.3-5,5s-1.4.8-1.3,1.8h4v2.1h5v-10.6Z"/>
  </g>
</svg>