<?xml version="1.0" encoding="UTF-8"?>
<svg id="Layer_1" xmlns="http://www.w3.org/2000/svg" version="1.1" viewBox="0 0 100 100">
  <!-- Generator: Adobe Illustrator 29.5.1, SVG Export Plug-In . SVG Version: 2.1.0 Build 141)  -->
  <defs>
    <style>
      .st0 {
        fill: #3f2243;
      }
    </style>
  </defs>
  <path class="st0" d="M76.3,50.6v-11.2h-7.9v-10.3h-7.1v-11.4h-7.1V5.4h-8.9v12.3h-6.9v11.4h-7.4v10.3h-7.6v11.2h-7.4v30.1h7.4v8.3h8.4v5.7h36.4v-5.7h7.7c0-1.2,0-2.5,0-3.8,0-.9.2-1.9.2-2.8,0-.3-.4-1.7,0-1.7h7.3v-30.1h-7.4ZM47.3,81.4h-1.9c-.1,0,0,.4,0,.5,0,.3,0,.5,0,.8,0,.4,0,.7,0,1.1h-2v1.6h-9.4v-1.6h-2.1v-2.4h-1.9v-8.6h1.9v-3.2h1.9v-2.9h1.9v-3.3h1.8v-3.5h2.3v3.5h1.8v3.3h1.8v2.9h2v3.2h1.9v8.6Z"/>
</svg>