<?xml version="1.0" encoding="UTF-8"?>
<svg id="Layer_1" xmlns="http://www.w3.org/2000/svg" version="1.1" viewBox="0 0 100 100">
  <!-- Generator: Adobe Illustrator 29.5.1, SVG Export Plug-In . SVG Version: 2.1.0 Build 141)  -->
  <defs>
    <style>
      .st0 {
        fill: #3f2243;
      }
    </style>
  </defs>
  <g id="RZTG5n.tif">
    <path class="st0" d="M45.2,9.3v9.4h9.6v4.8s-.1.1-.1.1h-9.5v9.4h14.2v4.8s.1.1.1.1h4.8v4.9h4.8v23.8h-4.8v4.9h-4.9v4.5h-4.7v9.6h4.7v4.9h-9.4v-19.3h4.7v-4.7h4.7v-4.8h4.8v-14.2h-4.8v-4.8h-4.7v-4.8h-14.3c0,0,0,.1,0,.1v4.7h-4.7v14.2h-4.9v-19.1h4.6s.1-.1.1-.1v-4.7h4.7v-9.5h-9.4v-4.9h9.4v-9.4h4.9Z"/>
  </g>
</svg>