<?xml version="1.0" encoding="UTF-8"?>
<svg id="Layer_1" xmlns="http://www.w3.org/2000/svg" version="1.1" viewBox="0 0 100 100">
  <!-- Generator: Adobe Illustrator 29.5.1, SVG Export Plug-In . SVG Version: 2.1.0 Build 141)  -->
  <defs>
    <style>
      .st0 {
        fill: #3f2243;
      }
    </style>
  </defs>
  <path class="st0" d="M94.3,27.7h-4.5v-8.4h-5.4v-5.3h-5.2v-5h-8.9v-4.7H29.1l-.2,4.7h-8.3v5h-4.4s-.2.2-.2.2v5.1h-5.5v8.4h-5.1v44.4c1.7.3,3.4.2,5.1,0v8.5h5.5v5.2h4.6v5h8.3v4.9h41.3v-4.9h8.9v-5h5.2v-5s.2-.2.2-.2h5.1v-8.4h4.7V27.9s-.2-.2-.2-.2ZM57.3,75.7v4h-14.8v-3.8h-7.2v-4.7h-4.5s-.2-.2-.2-.2v-4.7h-4.6v-7.2h-4.6v-18.3h4.6v-7h4.6v-4.9h4.8v-4.4h7.2v-3.8h14.8v3.8h7.2v4.4h4.9v4.9h4.8v7.3h4.6v18.2h-4.6v7h-4.8v4.7l-4.9.2v4.6h-7.2Z"/>
</svg>