<?xml version="1.0" encoding="UTF-8"?>
<svg id="Layer_1" xmlns="http://www.w3.org/2000/svg" version="1.1" viewBox="0 0 100 100">
  <!-- Generator: Adobe Illustrator 29.5.1, SVG Export Plug-In . SVG Version: 2.1.0 Build 141)  -->
  <defs>
    <style>
      .st0 {
        fill: #3f2243;
      }
    </style>
  </defs>
  <g id="p3eD3i.tif">
    <g>
      <path class="st0" d="M79.1,49.1h-3.8v10.7h-3.5v7.3s-.2.2-.2.2h-3.7v6.6h-3.7v3.9h-3.8v6.8h-3.4v3.5h-3.5c-.3,0,0,.3,0,.3v3.4h-3.7v3.9h-18.3v-3.9h-3.4v-7.2h-3.6s-.2-.2-.2-.2v-24.3s.2-.2.2-.2h3.6v-7h-3.8v-7.2h-3.5v-24.6h3.5v-6.6h3.8v-3.3h3.4v-3.4h4s.2-.2.2-.2v-3.5h28.5v3.7h3.8v3.4h3.7v3.3h3.7v6.6h3.8v27.9ZM60.4,8.2h-21v3.4h-3.8v3.4s-.1.1-.2.2h-3.6c0,0,0,3.3,0,3.3h-3.4v6.8h-3.8v17.1h3.8v6.6h3.4s.2.2.2.2v14.7h-3.5v17.1h3.4c.1,0,.2.3.2.4.2,1.6,0,4.3,0,6s-.2.8,0,.8h3.4v3.7h10.6v-3.7h3.4c.3,0,0-.3,0-.3v-3.2s.2-.2.2-.2h3.5v-3.5h3.4v-7h3.9v-4h3.7v-6.3h3.8v-7.8h3.8v-10h3.4v-20.5h-3.4v-6.8h-3.8v-3.4h-3.8v-3.4h-3.7v-3.4Z"/>
      <path class="st0" d="M60.5,14v3.8h3.8v3.4h3.7v27.9h-4v-23.9h-3.5v-3.7h-3.9v-3.7h-10.2v3.7h-4v3.7h-3.4v4.8h-3.5v10.7h3.5v5h2.6c.3,0,1.6.5,1.9.6,2.2,1,3.9,3.2,4.3,5.6h2.2v8h-3.8v4h-7.2v3.2h3.3v3.5h3.9v-3.3h3.4v-3.8c1.2,0,2.4-.3,3.5,0v-17.8h-3.5v-4.3h-3.4v-3.5s-.2-.2-.2-.2h-3.4v-4.3h7.3s.2.2.2.2v3.8s-.2.2-.1.3h3.7v4.4h3.5v25c-.2,0-.4.1-.4.1h-3.1v3.5s-.2.2-.2.2h-3.5v3.4h-11.5v-3.5h-3.4v-11h7.2v-7h-3.9v-3.9h-3.3v-4.6s-.2-.2-.2-.2h-3.6v-18.2h3.7v-5h3.4v-3.4h3.9v-3.8h18.3Z"/>
    </g>
  </g>
</svg>