<?xml version="1.0" encoding="UTF-8"?>
<svg id="Layer_1" xmlns="http://www.w3.org/2000/svg" version="1.1" viewBox="0 0 100 100">
  <!-- Generator: Adobe Illustrator 29.5.1, SVG Export Plug-In . SVG Version: 2.1.0 Build 141)  -->
  <defs>
    <style>
      .st0 {
        fill: #3f2243;
      }
    </style>
  </defs>
  <g id="gnHX9R.tif">
    <g>
      <path class="st0" d="M66.4,9.3v3.5h7.1v3.4h3.5v3.5h3.6v3.5h3.4v7.1h3.6v7.1h3.4v25.1h-3.4v7.1h-3.6v7h-3.4v3.5h-3.5s-.2.2-.2.2v3.4h-3.5v3.4s-.2.2-.2.2h-6.9v3.5h-32.7v-3.5h-7.2v-3.5h-3.5v-3.5h-3.5v-3.5h-3.5v-7h-3.5v-7.1h-3.5v-25.1h3.5v-7.1h3.5v-7.1h3.5v-3.5h3.5v-3.4s.2-.2.2-.2h3.4v-3.4h7.2v-3.5h32.7ZM62.5,19.8v-3.5c0,0-.1.1-.2.1h-24.9v3.4h-7.2v3.6h-3.6v3.5h-3.6v7.1h-3.5v7.1h-3.5v18h3.5c.2,1.2.1,2.5.1,3.8s-.2,1.9-.1,2.9,0,.4.2.4h3.4v6.7h3.6v3.5h3.6v3.6h7.2v3.5h25.2v-3.5h7.2v-3.6h3.6v-3.5h3.5v-6.7h3.5v-7.1h3.5v-18h-3.5v-7.1h-3.5v-7.1h-3.5v-3.5h-3.6v-3.6h-7.3Z"/>
      <rect class="st0" x="41" y="41.1" width="18.1" height="18"/>
    </g>
  </g>
</svg>