<?xml version="1.0" encoding="UTF-8"?>
<svg id="Layer_1" xmlns="http://www.w3.org/2000/svg" version="1.1" viewBox="0 0 100 100">
  <!-- Generator: Adobe Illustrator 29.5.1, SVG Export Plug-In . SVG Version: 2.1.0 Build 141)  -->
  <defs>
    <style>
      .st0 {
        fill: #3f2243;
      }
    </style>
  </defs>
  <g id="_x34_LKnxy.tif">
    <path class="st0" d="M91.6,4v12.1h-3.7v11.3c0,.2-.6,0-.8,0s-.4.1-.6.1c-.8,0-1.6-.2-2.4,0v7.6h-4.1v3.7c-.1,0-.3.1-.3.1h-25.3s0-.1-.2-.1v7.7h-3.7c-.1,0-.2.3-.2.4-.3,2.3.4,4.8,0,7.1h-3.6v19.8h3.6v8.8c0,.1.1.3.2.3h3.7v4.1h13.5v4.1h13v4.1h-17.3v-3.8h-21.3v3.8h-15.6v-4.1h11v-4.1h8.2v-8.4h-4.1v-24.6h-3.6v-7.5h-7.4s-.3.2-.3,0v-3.8h-3.8v-3.7h-3.6c0,0-.3-.2-.4-.1v-7.5h-3.9v-15.2h12.1v3.8h3.7s.2.2.2.2v3.5h3.8v3.9h3.8v19h3.6v-7.7h4.1v-7.5h3.9v-15.2h3.7v-3.9h3.9v-4h10.9V4h19.4ZM84.2,12.4h-4.1v3.7h-7.6v3.8h-3.8v3.8h-3.8v3.7c0,.4-2.4,0-2.8,0s-1,0-1,.2v3.6h-3.8v3.9h11.7v-3.9h7.7v-3.8h3.8v-7.6h3.7v-7.5Z"/>
  </g>
</svg>