<?xml version="1.0" encoding="UTF-8"?>
<svg id="Layer_1" xmlns="http://www.w3.org/2000/svg" version="1.1" viewBox="0 0 100 100">
  <!-- Generator: Adobe Illustrator 29.5.1, SVG Export Plug-In . SVG Version: 2.1.0 Build 141)  -->
  <defs>
    <style>
      .st0 {
        fill: #3f2243;
      }
    </style>
  </defs>
  <path class="st0" d="M78.8,67.4v2.4h3.7s.2.2.2.2v2.5s-.2,0-.1.2h3.4v4.1h2.1v9.5h-2.1v3.7h-3.4v2.4s.1,0,.1.2c-.2,0-.4.1-.4.1h-3.4v2.2H21.5v-2.2h-3.5v-2.7h-3.4v-3.7h-2.2v-9.5h2.2v-4.2h3.2s0,.2.2.1v-2.9h3.6v-2.5h57.1Z"/>
  <path class="st0" d="M23.4,47.9c0-.2.3-.2.4-.2.8,0,2.5,0,3.4,0s.3,0,.4.1v-1.4c2,0,4.1.2,6.1.1v1.2s32.6,0,32.6,0v-1.4s6.7,0,6.7,0c0,0,0,1.2,0,1.2h3.9v2.9h3.1v8.6h-3.1v3h-3.9v1.2s-5.1.1-5.1.1v2h-35.6v-2.1h-4.7c0,0,0-1.2,0-1.2h-4.1v-3h-2.9c0,0-.3-.2-.4-.1v-8.5h3.4c0,0-.1-.1-.1-.2,0-.5-.1-2.2,0-2.5Z"/>
  <path class="st0" d="M69.5,27.2v2h3.1v2.2h3.6v8.7h-3.6v3h-6.1s0-.2-.2-.1v2.9h-32.4v-2.9h-6.2s0,.2-.2.1v-3h-3.7v-8.7h3.7v-2.2h3.2v-2h38.7Z"/>
  <path class="st0" d="M61.8,5v3.1h4.4s.2.2.2.2v3.4h3.1v7.6h-3.5v3.4h-4.2v2.5h-23.3v-2.5h-4.1v-3.4h-3.5v-7.6h3.4v-3.4s.2-.2.2-.2h3.8v-2.9s.2-.2.2-.2h23.4Z"/>
</svg>