<?xml version="1.0" encoding="UTF-8"?>
<svg id="Layer_1" xmlns="http://www.w3.org/2000/svg" version="1.1" viewBox="0 0 100 100">
  <!-- Generator: Adobe Illustrator 29.5.1, SVG Export Plug-In . SVG Version: 2.1.0 Build 141)  -->
  <defs>
    <style>
      .st0 {
        fill: #3f2243;
      }
    </style>
  </defs>
  <g id="KRGKUQ.tif">
    <path class="st0" d="M92,4v65c0,.8-1.6,2.8-2.1,3.5-2.3,3.8-2.7,8-.4,11.9s2.5,3.2,2.5,4.3v7.3h-10.7c-3,0-6.6-4.8-6.6-8.4v-19.7c-2.6-1.5-4.9-4.4-6-7.6s-1-7.6-1-11.7h-35.5c0,5,.3,9.4-2,13.8s-2.9,4.1-5,5.5v19.6c0,3.6-3.8,8.5-6.7,8.5H8v-7.3c0-1,1.8-3.1,2.3-3.9,2.3-3.7,2.4-7.6.3-11.5-.5-.9-2.5-3.5-2.5-4.4V4h84.1ZM87.4,30.7H12.6v12h74.7v-12ZM27.3,48.6h-14.7v18.6c3.3,4.1,5,9.4,3.9,15.1s-2.1,5.7-3.9,7.9h5.1c1.1,0,2.6-1.9,2.7-3.2v-22.8c0-.3,1.4-.6,1.7-.8,2.3-1.1,5.2-4.9,5.2-8v-6.8ZM87.4,48.6h-14.7v6.4c0,1.1.7,3.3,1.2,4.3,1.3,2.5,3.2,4,5.5,4.8v22.4c0,1.6,1.6,3.8,2.9,3.8h5.1c-4.5-5.3-5.5-13.2-2.2-19.7.3-.6,2.2-3.1,2.2-3.3v-18.6Z"/>
  </g>
</svg>