<?xml version="1.0" encoding="UTF-8"?>
<svg id="Layer_1" xmlns="http://www.w3.org/2000/svg" version="1.1" viewBox="0 0 100 100">
  <!-- Generator: Adobe Illustrator 29.5.1, SVG Export Plug-In . SVG Version: 2.1.0 Build 141)  -->
  <defs>
    <style>
      .st0 {
        fill: #3f2243;
      }
    </style>
  </defs>
  <g id="b9HopO.tif">
    <g>
      <path class="st0" d="M80.8,4.3v6.7h4.1v13.1h3.2v27.2h-3.2v10c0,.3-.7,0-.9,0-.9,0-1.7,0-2.6,0v6.7h-3.6v6.4h-3.5v3.6h-3.6v3.7h-3.6v3.5h-6v3.4h-7.2v3.4h-12.7v3.6H15.8v-3.6h-4v-24.3h4v-3.5h17.2c.3,0,0,.6,0,.8,0,.6,0,1.9,0,2.4s0,.3.2.3h4.1v-3.5h8.8v-3.2h6.6v-3.4h4v-3.4h3.6v-3.5h3.4v-3.7h3.5v-6.7h3.5v-9.3c0-.3.8,0,1,0,.7,0,1.5,0,2.2,0V4.3h6.9ZM81.1,14.8h-3v20h-3.5v9.3h-3.6v7.1h-3.2v3.5c0,.1-.2.1-.3.1-1,0-2.1-.2-3.1,0v3.5h-3.6v3.4c-.1,0-.3-.1-.3-.1h-3.5v3.4h-7v3.4h-8.8v3.6h-11.7v-3.6h-2.5v23.6h2.8v-3.5h4.1v3.5h3.6v-3.5h12.6v-3.4h7v-3.4h6.4v-3.5h3.5v-3.6h3.5v-3.5h3.6v-6.4s.2-.2.2-.2h3.4v-6.6h3.5v-11.5h3.1v-18.3h-3.1v-13.1ZM22.9,68.2h-3.1c-.5,0,.3,3.6-.2,3.6h-3.5v16.5h3.6v3.5h3.2v-23.6Z"/>
      <rect class="st0" x="30.7" y="74.5" width="4.1" height="7.1"/>
    </g>
  </g>
</svg>