<?xml version="1.0" encoding="UTF-8"?>
<svg id="Layer_1" xmlns="http://www.w3.org/2000/svg" version="1.1" viewBox="0 0 100 100">
  <!-- Generator: Adobe Illustrator 29.5.1, SVG Export Plug-In . SVG Version: 2.1.0 Build 141)  -->
  <defs>
    <style>
      .st0 {
        fill: #3f2243;
      }
    </style>
  </defs>
  <g id="ZNgv5L.tif">
    <path class="st0" d="M46.2,90.7v-8.5h-11.3v-7.2h11.3v-8.6h-7.5v-3.8h-7.3v-3.7h-3.7v-3.9h-3.7v-7.5h-3.5v-18.7h3.4s.2-.2.2-.2v-7.4h3.7v-3.7h3.7v-4.2h7.3v-4h22.6c0,.2-.1.3-.1.4v3.6h7.4v4.2h3.7v3.7h3.5v7.5h3.7v18.7h-3.7v7.5c0,.4-1.1,0-1.4,0-.7,0-1.4,0-2.2,0v3.9h-3.8c0,.1.1.2.1.3v3.2s-.2.2-.2.2h-7.1v3.6s-.2.2-.2.2h-7.4v8.6h10.9v7.2h-10.9v8.5h-7.5ZM57.3,17.3h-14.7v3.9h-7.4v3.8h-3.7v7.3h-3.7v11.7h3.7v7.1h3.7v4h7.4v3.7h14.7v-3.7h7.5v-4h3.5v-7.1h3.8v-11.7h-3.8v-7.3h-3.5v-3.8h-7.5v-3.9Z"/>
  </g>
</svg>