<?xml version="1.0" encoding="UTF-8"?>
<svg id="Layer_1" xmlns="http://www.w3.org/2000/svg" version="1.1" viewBox="0 0 100 100">
  <!-- Generator: Adobe Illustrator 29.5.1, SVG Export Plug-In . SVG Version: 2.1.0 Build 141)  -->
  <defs>
    <style>
      .st0 {
        fill: #3f2243;
      }
    </style>
  </defs>
  <g id="_x30_fRZ18.tif">
    <g>
      <path class="st0" d="M91.8,4v5.2h-1.8v14.5h6.6v5.1s-.2.2-.2.2h-3.2v9.8h-2.4v52h2.4v5.3h-32.6v-5.3h2.2v-31.7h-2.9v-4.8h-2.9v-2.6h-2.8c-.2-.9,0-1.7,0-2.5h-8.7v2.5h-2.9v2.6h-2.8v4.8h-2.5v31.7h1.9s.2.2.2.2v5.1H6.8v-5.1s.2-.2.2-.2h1.9s.3.2.3,0v-52h-2.4v-9.8h-3.2s-.2-.2-.2-.2v-5.1h6.7v-14.5h-1.9V4h83.6ZM84.8,9.2H15.3v14.5h69.5v-14.5ZM87.8,28.9H12.2s0-.2-.2-.1v4.8h75.8v-4.7ZM85.8,38.7H14.2v20.7h17.7v-2.6h2.3v-5.2h2.9v-2.8h2.6v-2.9h5.1v-2.5h9.9s.2.2.2.2v1.9c0,0-.2.3-.1.4h4.9v2.9h2.8v2.8h2.9v5.2h2.3s.2.2.2.2v2.2s-.2.2-.1.3h17.9v-20.7ZM32.1,64.2H14.2v16.9h17.8v-16.9ZM85.8,64.2h-17.9v16.9h17.9v-16.9ZM32.1,90.7v-4.2l-17.8-.2v4.3h17.8ZM85.8,86.4h-17.9v4.3h17.9v-4.3Z"/>
      <rect class="st0" x="47.2" y="13.7" width="5.7" height="5.7"/>
      <rect class="st0" x="22.3" y="13.7" width="5.5" height="5.7"/>
      <rect class="st0" x="72.4" y="13.7" width="5.1" height="5.7"/>
      <rect class="st0" x="73.7" y="71.2" width="6" height="6"/>
      <path class="st0" d="M25.9,71.2v6h-6.1v-5.8s.2-.2.2-.2h6Z"/>
    </g>
  </g>
</svg>