<?xml version="1.0" encoding="UTF-8"?>
<svg id="Layer_1" xmlns="http://www.w3.org/2000/svg" version="1.1" viewBox="0 0 100 100">
  <!-- Generator: Adobe Illustrator 29.5.1, SVG Export Plug-In . SVG Version: 2.1.0 Build 141)  -->
  <defs>
    <style>
      .st0 {
        fill: #c6ecae;
      }
    </style>
  </defs>
  <path class="st0" d="M55.2,87.2c1.7-1.6,3.3-3.3,4.9-5.1l-3.7-3.2c-1.7,1.9-3.5,3.7-5.3,5.4v-10.5h5.8v-4.9h-5.8v-17l14.3-.2v2.1l4.9.3v-2.3l16.5-.2c-.2,2.5-.5,4.9-1,7.3l4.8,1c.7-3.4,1.1-6.8,1.2-10.3,0-4.8-.8-9.5-2.2-13.8-3.7-11-11.4-19.8-21.8-24.9-10.5-5.3-22.2-6.1-33.2-2.3-10.9,3.7-19.7,11.3-24.9,21.7-5.1,10.4-5.9,22.1-2.2,33,3.7,11,11.4,19.8,21.8,24.9,6.1,3,12.6,4.6,19.2,4.6s9.3-.7,13.8-2.3l-1.6-4.6c-1.9.6-3.7,1.1-5.6,1.4ZM36.3,13.2h0c1.7-.5,3.4-1,5.1-1.3-4,4.6-7.2,9.6-9.6,15.1h-14.3c4.6-6.4,11.2-11.2,18.8-13.8ZM46.1,14.1v12.9h-8.8c2.3-4.6,5.3-9,8.8-12.9ZM46,68.9h-11.4c-1.7-4.8-2.6-10.4-2.8-16.7l14.2-.2v16.9ZM14.2,32.5c0-.2.2-.4.4-.6h15.4c-1.7,4.9-2.7,10.2-2.9,15.4l-16.7.2c.3-5.2,1.6-10.3,3.9-15ZM15.6,68.9c-1.3-2.2-2.4-4.6-3.2-7.1-1.1-3-1.7-6.2-1.9-9.3h0c0,0,16.6-.3,16.6-.3.2,6.3,1,11.8,2.5,16.7h-13.9ZM31.5,83.8c-4.9-2.4-9.2-5.9-12.6-10h12.3c.7,1.7,1.6,3.2,2.5,4.7,2.2,3.7,4.8,6.3,7.3,8.6-3.3-.6-6.5-1.8-9.6-3.3ZM46.1,84.9c-2.8-2.2-5.7-4.9-8.1-8.9-.4-.7-.8-1.4-1.3-2.1h9.4v11.1ZM46.2,47.1l-14.2.2c.4-5.3,1.4-10.4,3.2-15.4h11v15.2ZM82.7,31.9c.9,1.7,1.7,3.6,2.3,5.4,1,3,1.6,6.2,1.9,9.3h0l-16.7.2v-1c-.4-4.7-1.3-9.4-2.9-13.9h15.4ZM65.6,15.3c5.6,2.8,10.3,6.7,13.9,11.7h-14.2c-.4-1-.9-1.9-1.3-2.8-2.2-4.5-5-8.6-8.3-12.3,3.4.6,6.8,1.8,10,3.4ZM51,14.2h0c3.4,3.6,6.3,7.7,8.5,12.2,0,.2.2.4.3.6h-8.8v-12.9ZM51,31.9h11c1.7,4.6,2.8,9.4,3.1,14.3v.7l-14.1.2v-15.2Z"/>
  <path class="st0" d="M82,70.3l4.8-3.1c1.4-.9,1.9-2.8,1.1-4.2-.4-.7-1.2-1.3-2-1.4l-25.1-5.9c-1.7-.4-3.3.7-3.7,2.4v1.3l5.4,25.5c.2.8.6,1.5,1.3,2,.7.4,1.5.6,2.3.4s1.5-.6,2-1.3l3-4.8,12.7,12.7,10.7-10.8-12.7-12.7ZM70.4,73.2l-3.9,6.3-3.9-18.4,18,4.2-6.4,4.1,13.6,13.6-3.8,3.8-13.6-13.6Z"/>
</svg>